<?xml version="1.0" encoding="UTF-8" standalone="no"?>
<!-- Generator: Adobe Illustrator 18.1.1, SVG Export Plug-In . SVG Version: 6.00 Build 0)  -->

<svg
   xmlns:dc="http://purl.org/dc/elements/1.1/"
   xmlns:cc="http://creativecommons.org/ns#"
   xmlns:rdf="http://www.w3.org/1999/02/22-rdf-syntax-ns#"
   xmlns:svg="http://www.w3.org/2000/svg"
   xmlns="http://www.w3.org/2000/svg"
   xmlns:sodipodi="http://sodipodi.sourceforge.net/DTD/sodipodi-0.dtd"
   xmlns:inkscape="http://www.inkscape.org/namespaces/inkscape"
   version="1.1"
   id="Layer_1"
   x="0px"
   y="0px"
   viewBox="0 0 63 63"
   style="enable-background:new 0 0 63 63;"
   xml:space="preserve"
   inkscape:version="0.91 r13725"
   sodipodi:docname="favicon.svg"
   inkscape:export-filename="/home/martijn/Code/clash-lang.org/static/media/logos/favicon.png"
   inkscape:export-xdpi="91.43"
   inkscape:export-ydpi="91.43"><metadata
     id="metadata305"><rdf:RDF><cc:Work
         rdf:about=""><dc:format>image/svg+xml</dc:format><dc:type
           rdf:resource="http://purl.org/dc/dcmitype/StillImage" /><dc:title></dc:title></cc:Work></rdf:RDF></metadata><defs
     id="defs303" /><sodipodi:namedview
     pagecolor="#ffffff"
     bordercolor="#666666"
     borderopacity="1"
     objecttolerance="10"
     gridtolerance="10"
     guidetolerance="10"
     inkscape:pageopacity="0"
     inkscape:pageshadow="2"
     inkscape:window-width="2560"
     inkscape:window-height="1416"
     id="namedview301"
     showgrid="false"
     inkscape:zoom="5.2976889"
     inkscape:cx="40.086542"
     inkscape:cy="34.790508"
     inkscape:window-x="1920"
     inkscape:window-y="24"
     inkscape:window-maximized="1"
     inkscape:current-layer="Layer_1" /><style
     type="text/css"
     id="style3">
	.st0{fill:none;stroke:#0D4200;stroke-width:3;stroke-miterlimit:10;}
	.st1{fill:none;stroke:#231F20;stroke-width:3;stroke-miterlimit:10;}
	.st2{opacity:0.15;}
	.st3{fill:none;stroke:#000000;stroke-width:2;stroke-miterlimit:10;}
	.st4{fill:none;stroke:#231F20;stroke-width:2;stroke-miterlimit:10;}
	.st5{fill:#231F20;}
	.st6{fill:none;stroke:#231F20;stroke-width:4;stroke-miterlimit:10;}
</style><circle
     style="fill:#ffffff;fill-opacity:1;stroke:none;stroke-width:2.15532923;stroke-miterlimit:4;stroke-dasharray:none;stroke-opacity:1"
     id="path4952"
     cx="31.5"
     cy="31.500002"
     r="31.5" /><g
     id="g4873"
     transform="matrix(0.7259883,0,0,0.70909232,8.5398316,8.6780946)"><path
       style="fill:none;stroke:#0d4200;stroke-width:3;stroke-miterlimit:10"
       inkscape:connector-curvature="0"
       id="path9"
       d="M 12.8,7.3640481"
       class="st0" /><path
       style="fill:none;stroke:#231f20;stroke-width:3;stroke-miterlimit:10"
       inkscape:connector-curvature="0"
       id="path13"
       d="M 12.8,7.3640481"
       class="st1" /><path
       style="fill:none;stroke:#0d4200;stroke-width:3;stroke-miterlimit:10"
       inkscape:connector-curvature="0"
       id="path19"
       d="M 54.3,52.1"
       class="st0" /><path
       style="fill:none;stroke:#231f20;stroke-width:3;stroke-miterlimit:10"
       inkscape:connector-curvature="0"
       id="path23"
       d="M 54.3,52.1"
       class="st1" /><path
       style="fill:none;stroke:#0d4200;stroke-width:3;stroke-miterlimit:10"
       inkscape:connector-curvature="0"
       id="path29"
       d="M 19.7,4.5640481"
       class="st0" /><path
       style="fill:none;stroke:#231f20;stroke-width:3;stroke-miterlimit:10"
       inkscape:connector-curvature="0"
       id="path33"
       d="M 19.7,4.5640481"
       class="st1" /><path
       style="fill:none;stroke:#0d4200;stroke-width:3;stroke-miterlimit:10"
       inkscape:connector-curvature="0"
       id="path39"
       d="M 58.6,14.1"
       class="st0" /><path
       style="fill:none;stroke:#231f20;stroke-width:3;stroke-miterlimit:10"
       inkscape:connector-curvature="0"
       id="path43"
       d="M 58.6,14.1"
       class="st1" /><path
       style="fill:none;stroke:#0d4200;stroke-width:3;stroke-miterlimit:10"
       inkscape:connector-curvature="0"
       id="path49"
       d="M 49.6,3.9696673"
       class="st0" /><path
       style="fill:none;stroke:#231f20;stroke-width:3;stroke-miterlimit:10"
       inkscape:connector-curvature="0"
       id="path53"
       d="M 49.6,3.9696673"
       class="st1" /><path
       style="fill:none;stroke:#0d4200;stroke-width:3;stroke-miterlimit:10"
       inkscape:connector-curvature="0"
       id="path59"
       d="M 37.7,4.4696673"
       class="st0" /><path
       style="fill:none;stroke:#231f20;stroke-width:3;stroke-miterlimit:10"
       inkscape:connector-curvature="0"
       id="path63"
       d="M 37.7,4.4696673"
       class="st1" /><path
       style="fill:none;stroke:#0d4200;stroke-width:3;stroke-miterlimit:10"
       inkscape:connector-curvature="0"
       id="path69"
       d="M 58.6,19.9"
       class="st0" /><path
       style="fill:none;stroke:#231f20;stroke-width:3;stroke-miterlimit:10"
       inkscape:connector-curvature="0"
       id="path73"
       d="M 58.6,19.9"
       class="st1" /><path
       style="fill:none;stroke:#0d4200;stroke-width:3;stroke-miterlimit:10"
       inkscape:connector-curvature="0"
       id="path79"
       d="M 58.6,25.9"
       class="st0" /><path
       style="fill:none;stroke:#231f20;stroke-width:3;stroke-miterlimit:10"
       inkscape:connector-curvature="0"
       id="path83"
       d="M 58.6,25.9"
       class="st1" /><path
       style="fill:none;stroke:#0d4200;stroke-width:3;stroke-miterlimit:10"
       inkscape:connector-curvature="0"
       id="path89"
       d="M 59.7,43.6"
       class="st0" /><path
       style="fill:none;stroke:#231f20;stroke-width:3;stroke-miterlimit:10"
       inkscape:connector-curvature="0"
       id="path93"
       d="M 59.7,43.6"
       class="st1" /><path
       class="st3"
       d="m 12.8,9.0640481 0,-3.9 c 0,-0.3 0.2,-0.5 0.5,-0.5 l 0.7,0 c 0.3,0 0.5,0.2 0.5,0.5 l 0,3.9 c 0,0.3 -0.2,0.5 -0.5,0.5 l -0.8,0 c -0.2,0 -0.4,-0.2 -0.4,-0.5 z"
       id="path103"
       inkscape:connector-curvature="0"
       style="fill:none;stroke:#000000;stroke-width:2;stroke-miterlimit:10" /><path
       class="st3"
       d="m 18.8,9.0640481 0,-3.9 c 0,-0.3 0.2,-0.5 0.5,-0.5 l 0.7,0 c 0.3,0 0.5,0.2 0.5,0.5 l 0,3.9 c 0,0.3 -0.2,0.5 -0.5,0.5 l -0.8,0 c -0.2,0 -0.4,-0.2 -0.4,-0.5 z"
       id="path105"
       inkscape:connector-curvature="0"
       style="fill:none;stroke:#000000;stroke-width:2;stroke-miterlimit:10" /><path
       class="st3"
       d="m 24.8,9.0640481 0,-3.9 c 0,-0.3 0.2,-0.5 0.5,-0.5 l 0.7,0 c 0.3,0 0.5,0.2 0.5,0.5 l 0,3.9 c 0,0.3 -0.2,0.5 -0.5,0.5 l -0.8,0 c -0.2,0 -0.4,-0.2 -0.4,-0.5 z"
       id="path107"
       inkscape:connector-curvature="0"
       style="fill:none;stroke:#000000;stroke-width:2;stroke-miterlimit:10" /><path
       class="st3"
       d="m 30.8,9.0168577 0,-3.9 c 0,-0.3 0.2,-0.5 0.5,-0.5 l 0.7,0 c 0.3,0 0.5,0.2 0.5,0.5 l 0,3.9 c 0,0.3 -0.2,0.5 -0.5,0.5 l -0.8,0 c -0.2,0 -0.4,-0.2 -0.4,-0.5 z"
       id="path109"
       inkscape:connector-curvature="0"
       style="fill:none;stroke:#000000;stroke-width:2;stroke-miterlimit:10" /><path
       class="st3"
       d="m 36.8,8.9696673 0,-3.9 c 0,-0.3 0.2,-0.5 0.5,-0.5 l 0.7,0 c 0.3,0 0.5,0.2 0.5,0.5 l 0,3.9 c 0,0.3 -0.2,0.5 -0.5,0.5 l -0.8,0 c -0.2,0 -0.4,-0.2 -0.4,-0.5 z"
       id="path111"
       inkscape:connector-curvature="0"
       style="fill:none;stroke:#000000;stroke-width:2;stroke-miterlimit:10" /><path
       class="st3"
       d="m 42.8,9.1112384 0,-3.9 c 0,-0.3 0.2,-0.5 0.5,-0.5 l 0.7,0 c 0.3,0 0.5,0.2 0.5,0.5 l 0,3.9 c 0,0.3 -0.2,0.5 -0.5,0.5 l -0.8,0 c -0.2,0 -0.4,-0.2 -0.4,-0.5 z"
       id="path113"
       inkscape:connector-curvature="0"
       style="fill:none;stroke:#000000;stroke-width:2;stroke-miterlimit:10" /><path
       class="st3"
       d="m 48.8,8.9696673 0,-3.9 c 0,-0.3 0.2,-0.5 0.5,-0.5 l 0.7,0 c 0.3,0 0.5,0.2 0.5,0.5 l 0,3.9 c 0,0.3 -0.2,0.5 -0.5,0.5 l -0.8,0 c -0.2,0 -0.4,-0.2 -0.4,-0.5 z"
       id="path115"
       inkscape:connector-curvature="0"
       style="fill:none;stroke:#000000;stroke-width:2;stroke-miterlimit:10" /><path
       class="st3"
       d="m 55.2,14 3.9,0 c 0.3,0 0.5,0.2 0.5,0.5 l 0,0.8 c 0,0.3 -0.2,0.5 -0.5,0.5 l -3.9,0 c -0.3,0 -0.5,-0.2 -0.5,-0.5 l 0,-0.8 c 0,-0.3 0.2,-0.5 0.5,-0.5 z"
       id="path117"
       inkscape:connector-curvature="0"
       style="fill:none;stroke:#000000;stroke-width:2;stroke-miterlimit:10" /><path
       class="st3"
       d="m 55.2,20 3.9,0 c 0.3,0 0.5,0.2 0.5,0.5 l 0,0.8 c 0,0.3 -0.2,0.5 -0.5,0.5 l -3.9,0 c -0.3,0 -0.5,-0.2 -0.5,-0.5 l 0,-0.8 c 0,-0.3 0.2,-0.5 0.5,-0.5 z"
       id="path119"
       inkscape:connector-curvature="0"
       style="fill:none;stroke:#000000;stroke-width:2;stroke-miterlimit:10" /><path
       class="st3"
       d="m 55.2,26 3.9,0 c 0.3,0 0.5,0.2 0.5,0.5 l 0,0.8 c 0,0.3 -0.2,0.5 -0.5,0.5 l -3.9,0 c -0.3,0 -0.5,-0.2 -0.5,-0.5 l 0,-0.8 c 0,-0.3 0.2,-0.5 0.5,-0.5 z"
       id="path121"
       inkscape:connector-curvature="0"
       style="fill:none;stroke:#000000;stroke-width:2;stroke-miterlimit:10" /><path
       class="st3"
       d="m 55.2,32 3.9,0 c 0.3,0 0.5,0.2 0.5,0.5 l 0,0.8 c 0,0.3 -0.2,0.5 -0.5,0.5 l -3.9,0 c -0.3,0 -0.5,-0.2 -0.5,-0.5 l 0,-0.8 c 0,-0.3 0.2,-0.5 0.5,-0.5 z"
       id="path123"
       inkscape:connector-curvature="0"
       style="fill:none;stroke:#000000;stroke-width:2;stroke-miterlimit:10" /><path
       class="st3"
       d="m 55.2,38 3.9,0 c 0.3,0 0.5,0.2 0.5,0.5 l 0,0.8 c 0,0.3 -0.2,0.5 -0.5,0.5 l -3.9,0 c -0.3,0 -0.5,-0.2 -0.5,-0.5 l 0,-0.8 c 0,-0.3 0.2,-0.5 0.5,-0.5 z"
       id="path125"
       inkscape:connector-curvature="0"
       style="fill:none;stroke:#000000;stroke-width:2;stroke-miterlimit:10" /><path
       class="st3"
       d="m 55.2,44 3.9,0 c 0.3,0 0.5,0.2 0.5,0.5 l 0,0.8 c 0,0.3 -0.2,0.5 -0.5,0.5 l -3.9,0 c -0.3,0 -0.5,-0.2 -0.5,-0.5 l 0,-0.8 c 0,-0.3 0.2,-0.5 0.5,-0.5 z"
       id="path127"
       inkscape:connector-curvature="0"
       style="fill:none;stroke:#000000;stroke-width:2;stroke-miterlimit:10" /><path
       class="st3"
       d="m 55.2,50 3.9,0 c 0.3,0 0.5,0.2 0.5,0.5 l 0,0.8 c 0,0.3 -0.2,0.5 -0.5,0.5 l -3.9,0 c -0.3,0 -0.5,-0.2 -0.5,-0.5 l 0,-0.8 c 0,-0.3 0.2,-0.5 0.5,-0.5 z"
       id="path129"
       inkscape:connector-curvature="0"
       style="fill:none;stroke:#000000;stroke-width:2;stroke-miterlimit:10" /><path
       class="st3"
       d="m 50.5,56.4 0,3.9 c 0,0.3 -0.2,0.5 -0.5,0.5 l -0.8,0 c -0.3,0 -0.5,-0.2 -0.5,-0.5 l 0,-3.9 c 0,-0.3 0.2,-0.5 0.5,-0.5 l 0.8,0 c 0.3,0 0.5,0.3 0.5,0.5 z"
       id="path131"
       inkscape:connector-curvature="0"
       style="fill:none;stroke:#000000;stroke-width:2;stroke-miterlimit:10" /><path
       class="st3"
       d="m 44.5,56.4 0,3.9 c 0,0.3 -0.2,0.5 -0.5,0.5 l -0.8,0 c -0.3,0 -0.5,-0.2 -0.5,-0.5 l 0,-3.9 c 0,-0.3 0.2,-0.5 0.5,-0.5 l 0.8,0 c 0.3,0 0.5,0.3 0.5,0.5 z"
       id="path133"
       inkscape:connector-curvature="0"
       style="fill:none;stroke:#000000;stroke-width:2;stroke-miterlimit:10" /><path
       class="st3"
       d="m 38.5,56.4 0,3.9 c 0,0.3 -0.2,0.5 -0.5,0.5 l -0.8,0 c -0.3,0 -0.5,-0.2 -0.5,-0.5 l 0,-3.9 c 0,-0.3 0.2,-0.5 0.5,-0.5 l 0.8,0 c 0.3,0 0.5,0.3 0.5,0.5 z"
       id="path135"
       inkscape:connector-curvature="0"
       style="fill:none;stroke:#000000;stroke-width:2;stroke-miterlimit:10" /><path
       class="st3"
       d="m 32.5,56.4 0,3.9 c 0,0.3 -0.2,0.5 -0.5,0.5 l -0.8,0 c -0.3,0 -0.5,-0.2 -0.5,-0.5 l 0,-3.9 c 0,-0.3 0.2,-0.5 0.5,-0.5 l 0.8,0 c 0.3,0 0.5,0.3 0.5,0.5 z"
       id="path137"
       inkscape:connector-curvature="0"
       style="fill:none;stroke:#000000;stroke-width:2;stroke-miterlimit:10" /><path
       class="st3"
       d="m 26.5,56.4 0,3.9 c 0,0.3 -0.2,0.5 -0.5,0.5 l -0.8,0 c -0.3,0 -0.5,-0.2 -0.5,-0.5 l 0,-3.9 c 0,-0.3 0.2,-0.5 0.5,-0.5 l 0.8,0 c 0.3,0 0.5,0.3 0.5,0.5 z"
       id="path139"
       inkscape:connector-curvature="0"
       style="fill:none;stroke:#000000;stroke-width:2;stroke-miterlimit:10" /><path
       class="st3"
       d="m 20.5,56.4 0,3.9 c 0,0.3 -0.2,0.5 -0.5,0.5 l -0.8,0 c -0.3,0 -0.5,-0.2 -0.5,-0.5 l 0,-3.9 c 0,-0.3 0.2,-0.5 0.5,-0.5 l 0.8,0 c 0.3,0 0.5,0.3 0.5,0.5 z"
       id="path141"
       inkscape:connector-curvature="0"
       style="fill:none;stroke:#000000;stroke-width:2;stroke-miterlimit:10" /><path
       class="st3"
       d="m 14.5,56.4 0,3.9 c 0,0.3 -0.2,0.5 -0.5,0.5 l -0.8,0 c -0.3,0 -0.5,-0.2 -0.5,-0.5 l 0,-3.9 c 0,-0.3 0.2,-0.5 0.5,-0.5 l 0.8,0 c 0.3,0 0.5,0.3 0.5,0.5 z"
       id="path143"
       inkscape:connector-curvature="0"
       style="fill:none;stroke:#000000;stroke-width:2;stroke-miterlimit:10" /><path
       class="st3"
       d="m 8.1,51.8 -3.9,0 c -0.3,0 -0.5,-0.2 -0.5,-0.5 l 0,-0.8 C 3.7,50.2 3.9,50 4.2,50 l 3.9,0 c 0.3,0 0.5,0.2 0.5,0.5 l 0,0.8 c 0,0.3 -0.2,0.5 -0.5,0.5 z"
       id="path145"
       inkscape:connector-curvature="0"
       style="fill:none;stroke:#000000;stroke-width:2;stroke-miterlimit:10" /><path
       class="st3"
       d="m 8.1,45.8 -3.9,0 c -0.3,0 -0.5,-0.2 -0.5,-0.5 l 0,-0.8 C 3.7,44.2 3.9,44 4.2,44 l 3.9,0 c 0.3,0 0.5,0.2 0.5,0.5 l 0,0.8 c 0,0.3 -0.2,0.5 -0.5,0.5 z"
       id="path147"
       inkscape:connector-curvature="0"
       style="fill:none;stroke:#000000;stroke-width:2;stroke-miterlimit:10" /><path
       class="st3"
       d="m 8.1,39.8 -3.9,0 c -0.3,0 -0.5,-0.2 -0.5,-0.5 l 0,-0.8 C 3.7,38.2 3.9,38 4.2,38 l 3.9,0 c 0.3,0 0.5,0.2 0.5,0.5 l 0,0.8 c 0,0.3 -0.2,0.5 -0.5,0.5 z"
       id="path149"
       inkscape:connector-curvature="0"
       style="fill:none;stroke:#000000;stroke-width:2;stroke-miterlimit:10" /><path
       class="st3"
       d="m 8.1,33.8 -3.9,0 c -0.3,0 -0.5,-0.2 -0.5,-0.5 l 0,-0.8 C 3.7,32.2 3.9,32 4.2,32 l 3.9,0 c 0.3,0 0.5,0.2 0.5,0.5 l 0,0.8 c 0,0.3 -0.2,0.5 -0.5,0.5 z"
       id="path151"
       inkscape:connector-curvature="0"
       style="fill:none;stroke:#000000;stroke-width:2;stroke-miterlimit:10" /><path
       class="st3"
       d="m 8.1,27.8 -3.9,0 c -0.3,0 -0.5,-0.2 -0.5,-0.5 l 0,-0.8 C 3.7,26.2 3.9,26 4.2,26 l 3.9,0 c 0.3,0 0.5,0.2 0.5,0.5 l 0,0.8 c 0,0.3 -0.2,0.5 -0.5,0.5 z"
       id="path153"
       inkscape:connector-curvature="0"
       style="fill:none;stroke:#000000;stroke-width:2;stroke-miterlimit:10" /><path
       class="st3"
       d="m 8.1,21.8 -3.9,0 c -0.3,0 -0.5,-0.2 -0.5,-0.5 l 0,-0.8 C 3.7,20.2 3.9,20 4.2,20 l 3.9,0 c 0.3,0 0.5,0.2 0.5,0.5 l 0,0.8 c 0,0.3 -0.2,0.5 -0.5,0.5 z"
       id="path155"
       inkscape:connector-curvature="0"
       style="fill:none;stroke:#000000;stroke-width:2;stroke-miterlimit:10" /><path
       class="st3"
       d="m 8.1,15.8 -3.9,0 c -0.3,0 -0.5,-0.2 -0.5,-0.5 l 0,-0.8 C 3.7,14.2 3.9,14 4.2,14 l 3.9,0 c 0.3,0 0.5,0.2 0.5,0.5 l 0,0.8 c 0,0.3 -0.2,0.5 -0.5,0.5 z"
       id="path157"
       inkscape:connector-curvature="0"
       style="fill:none;stroke:#000000;stroke-width:2;stroke-miterlimit:10" /><path
       class="st4"
       d="m 12.8,8.0640481 0,-3.9 c 0,-0.3 0.2,-0.5 0.5,-0.5 l 0.7,0 c 0.3,0 0.5,0.2 0.5,0.5 l 0,3.9 c 0,0.3 -0.2,0.5 -0.5,0.5 l -0.8,0 c -0.2,0 -0.4,-0.2 -0.4,-0.5 z"
       id="path165"
       inkscape:connector-curvature="0"
       style="fill:none;stroke:#231f20;stroke-width:2;stroke-miterlimit:10" /><path
       class="st4"
       d="m 18.8,8.0640481 0,-3.9 c 0,-0.3 0.2,-0.5 0.5,-0.5 l 0.7,0 c 0.3,0 0.5,0.2 0.5,0.5 l 0,3.9 c 0,0.3 -0.2,0.5 -0.5,0.5 l -0.8,0 c -0.2,0 -0.4,-0.2 -0.4,-0.5 z"
       id="path169"
       inkscape:connector-curvature="0"
       style="fill:none;stroke:#231f20;stroke-width:2;stroke-miterlimit:10" /><path
       class="st4"
       d="m 24.8,8.0640481 0,-3.9 c 0,-0.3 0.2,-0.5 0.5,-0.5 l 0.7,0 c 0.3,0 0.5,0.2 0.5,0.5 l 0,3.9 c 0,0.3 -0.2,0.5 -0.5,0.5 l -0.8,0 c -0.2,0 -0.4,-0.2 -0.4,-0.5 z"
       id="path173"
       inkscape:connector-curvature="0"
       style="fill:none;stroke:#231f20;stroke-width:2;stroke-miterlimit:10" /><path
       class="st4"
       d="m 30.8,8.0168577 0,-3.9 c 0,-0.3 0.2,-0.5 0.5,-0.5 l 0.7,0 c 0.3,0 0.5,0.2 0.5,0.5 l 0,3.9 c 0,0.3 -0.2,0.5 -0.5,0.5 l -0.8,0 c -0.2,0 -0.4,-0.2 -0.4,-0.5 z"
       id="path177"
       inkscape:connector-curvature="0"
       style="fill:none;stroke:#231f20;stroke-width:2;stroke-miterlimit:10" /><path
       class="st4"
       d="m 36.8,7.9696673 0,-3.9 c 0,-0.3 0.2,-0.5 0.5,-0.5 l 0.7,0 c 0.3,0 0.5,0.2 0.5,0.5 l 0,3.9 c 0,0.3 -0.2,0.5 -0.5,0.5 l -0.8,0 c -0.2,0 -0.4,-0.2 -0.4,-0.5 z"
       id="path181"
       inkscape:connector-curvature="0"
       style="fill:none;stroke:#231f20;stroke-width:2;stroke-miterlimit:10" /><path
       class="st4"
       d="m 42.8,8.1112384 0,-3.9 c 0,-0.3 0.2,-0.5 0.5,-0.5 l 0.7,0 c 0.3,0 0.5,0.2 0.5,0.5 l 0,3.9 c 0,0.3 -0.2,0.5 -0.5,0.5 l -0.8,0 c -0.2,0 -0.4,-0.2 -0.4,-0.5 z"
       id="path185"
       inkscape:connector-curvature="0"
       style="fill:none;stroke:#231f20;stroke-width:2;stroke-miterlimit:10" /><path
       class="st4"
       d="m 48.8,7.9696673 0,-3.9 c 0,-0.3 0.2,-0.5 0.5,-0.5 l 0.7,0 c 0.3,0 0.5,0.2 0.5,0.5 l 0,3.9 c 0,0.3 -0.2,0.5 -0.5,0.5 l -0.8,0 c -0.2,0 -0.4,-0.2 -0.4,-0.5 z"
       id="path189"
       inkscape:connector-curvature="0"
       style="fill:none;stroke:#231f20;stroke-width:2;stroke-miterlimit:10" /><path
       class="st4"
       d="m 55.2,13 3.9,0 c 0.3,0 0.5,0.2 0.5,0.5 l 0,0.8 c 0,0.3 -0.2,0.5 -0.5,0.5 l -3.9,0 c -0.3,0 -0.5,-0.2 -0.5,-0.5 l 0,-0.8 c 0,-0.3 0.2,-0.5 0.5,-0.5 z"
       id="path195"
       inkscape:connector-curvature="0"
       style="fill:none;stroke:#231f20;stroke-width:2;stroke-miterlimit:10" /><path
       class="st4"
       d="m 55.2,19 3.9,0 c 0.3,0 0.5,0.2 0.5,0.5 l 0,0.8 c 0,0.3 -0.2,0.5 -0.5,0.5 l -3.9,0 c -0.3,0 -0.5,-0.2 -0.5,-0.5 l 0,-0.8 c 0,-0.3 0.2,-0.5 0.5,-0.5 z"
       id="path199"
       inkscape:connector-curvature="0"
       style="fill:none;stroke:#231f20;stroke-width:2;stroke-miterlimit:10" /><path
       class="st4"
       d="m 55.2,25 3.9,0 c 0.3,0 0.5,0.2 0.5,0.5 l 0,0.8 c 0,0.3 -0.2,0.5 -0.5,0.5 l -3.9,0 c -0.3,0 -0.5,-0.2 -0.5,-0.5 l 0,-0.8 c 0,-0.3 0.2,-0.5 0.5,-0.5 z"
       id="path203"
       inkscape:connector-curvature="0"
       style="fill:none;stroke:#231f20;stroke-width:2;stroke-miterlimit:10" /><path
       class="st4"
       d="m 55.2,31 3.9,0 c 0.3,0 0.5,0.2 0.5,0.5 l 0,0.8 c 0,0.3 -0.2,0.5 -0.5,0.5 l -3.9,0 c -0.3,0 -0.5,-0.2 -0.5,-0.5 l 0,-0.8 c 0,-0.3 0.2,-0.5 0.5,-0.5 z"
       id="path207"
       inkscape:connector-curvature="0"
       style="fill:none;stroke:#231f20;stroke-width:2;stroke-miterlimit:10" /><path
       class="st4"
       d="m 55.2,37 3.9,0 c 0.3,0 0.5,0.2 0.5,0.5 l 0,0.8 c 0,0.3 -0.2,0.5 -0.5,0.5 l -3.9,0 c -0.3,0 -0.5,-0.2 -0.5,-0.5 l 0,-0.8 c 0,-0.3 0.2,-0.5 0.5,-0.5 z"
       id="path211"
       inkscape:connector-curvature="0"
       style="fill:none;stroke:#231f20;stroke-width:2;stroke-miterlimit:10" /><path
       class="st4"
       d="m 55.2,43 3.9,0 c 0.3,0 0.5,0.2 0.5,0.5 l 0,0.8 c 0,0.3 -0.2,0.5 -0.5,0.5 l -3.9,0 c -0.3,0 -0.5,-0.2 -0.5,-0.5 l 0,-0.8 c 0,-0.3 0.2,-0.5 0.5,-0.5 z"
       id="path215"
       inkscape:connector-curvature="0"
       style="fill:none;stroke:#231f20;stroke-width:2;stroke-miterlimit:10" /><path
       class="st4"
       d="m 55.2,49 3.9,0 c 0.3,0 0.5,0.2 0.5,0.5 l 0,0.8 c 0,0.3 -0.2,0.5 -0.5,0.5 l -3.9,0 c -0.3,0 -0.5,-0.2 -0.5,-0.5 l 0,-0.8 c 0,-0.3 0.2,-0.5 0.5,-0.5 z"
       id="path219"
       inkscape:connector-curvature="0"
       style="fill:none;stroke:#231f20;stroke-width:2;stroke-miterlimit:10" /><path
       class="st4"
       d="m 50.5,55.4 0,3.9 c 0,0.3 -0.2,0.5 -0.5,0.5 l -0.8,0 c -0.3,0 -0.5,-0.2 -0.5,-0.5 l 0,-3.9 c 0,-0.3 0.2,-0.5 0.5,-0.5 l 0.8,0 c 0.3,0 0.5,0.3 0.5,0.5 z"
       id="path225"
       inkscape:connector-curvature="0"
       style="fill:none;stroke:#231f20;stroke-width:2;stroke-miterlimit:10" /><path
       class="st4"
       d="m 44.5,55.4 0,3.9 c 0,0.3 -0.2,0.5 -0.5,0.5 l -0.8,0 c -0.3,0 -0.5,-0.2 -0.5,-0.5 l 0,-3.9 c 0,-0.3 0.2,-0.5 0.5,-0.5 l 0.8,0 c 0.3,0 0.5,0.3 0.5,0.5 z"
       id="path229"
       inkscape:connector-curvature="0"
       style="fill:none;stroke:#231f20;stroke-width:2;stroke-miterlimit:10" /><path
       class="st4"
       d="m 38.5,55.4 0,3.9 c 0,0.3 -0.2,0.5 -0.5,0.5 l -0.8,0 c -0.3,0 -0.5,-0.2 -0.5,-0.5 l 0,-3.9 c 0,-0.3 0.2,-0.5 0.5,-0.5 l 0.8,0 c 0.3,0 0.5,0.3 0.5,0.5 z"
       id="path233"
       inkscape:connector-curvature="0"
       style="fill:none;stroke:#231f20;stroke-width:2;stroke-miterlimit:10" /><path
       class="st4"
       d="m 32.5,55.4 0,3.9 c 0,0.3 -0.2,0.5 -0.5,0.5 l -0.8,0 c -0.3,0 -0.5,-0.2 -0.5,-0.5 l 0,-3.9 c 0,-0.3 0.2,-0.5 0.5,-0.5 l 0.8,0 c 0.3,0 0.5,0.3 0.5,0.5 z"
       id="path237"
       inkscape:connector-curvature="0"
       style="fill:none;stroke:#231f20;stroke-width:2;stroke-miterlimit:10" /><path
       class="st4"
       d="m 26.5,55.4 0,3.9 c 0,0.3 -0.2,0.5 -0.5,0.5 l -0.8,0 c -0.3,0 -0.5,-0.2 -0.5,-0.5 l 0,-3.9 c 0,-0.3 0.2,-0.5 0.5,-0.5 l 0.8,0 c 0.3,0 0.5,0.3 0.5,0.5 z"
       id="path241"
       inkscape:connector-curvature="0"
       style="fill:none;stroke:#231f20;stroke-width:2;stroke-miterlimit:10" /><path
       class="st4"
       d="m 20.5,55.4 0,3.9 c 0,0.3 -0.2,0.5 -0.5,0.5 l -0.8,0 c -0.3,0 -0.5,-0.2 -0.5,-0.5 l 0,-3.9 c 0,-0.3 0.2,-0.5 0.5,-0.5 l 0.8,0 c 0.3,0 0.5,0.3 0.5,0.5 z"
       id="path245"
       inkscape:connector-curvature="0"
       style="fill:none;stroke:#231f20;stroke-width:2;stroke-miterlimit:10" /><path
       class="st4"
       d="m 14.5,55.4 0,3.9 c 0,0.3 -0.2,0.5 -0.5,0.5 l -0.8,0 c -0.3,0 -0.5,-0.2 -0.5,-0.5 l 0,-3.9 c 0,-0.3 0.2,-0.5 0.5,-0.5 l 0.8,0 c 0.3,0 0.5,0.3 0.5,0.5 z"
       id="path249"
       inkscape:connector-curvature="0"
       style="fill:none;stroke:#231f20;stroke-width:2;stroke-miterlimit:10" /><path
       class="st4"
       d="m 8.1,50.8 -3.9,0 c -0.3,0 -0.5,-0.2 -0.5,-0.5 l 0,-0.8 C 3.7,49.2 3.9,49 4.2,49 l 3.9,0 c 0.3,0 0.5,0.2 0.5,0.5 l 0,0.8 c 0,0.3 -0.2,0.5 -0.5,0.5 z"
       id="path255"
       inkscape:connector-curvature="0"
       style="fill:none;stroke:#231f20;stroke-width:2;stroke-miterlimit:10" /><path
       class="st4"
       d="m 8.1,44.8 -3.9,0 c -0.3,0 -0.5,-0.2 -0.5,-0.5 l 0,-0.8 C 3.7,43.2 3.9,43 4.2,43 l 3.9,0 c 0.3,0 0.5,0.2 0.5,0.5 l 0,0.8 c 0,0.3 -0.2,0.5 -0.5,0.5 z"
       id="path259"
       inkscape:connector-curvature="0"
       style="fill:none;stroke:#231f20;stroke-width:2;stroke-miterlimit:10" /><path
       class="st4"
       d="m 8.1,38.8 -3.9,0 c -0.3,0 -0.5,-0.2 -0.5,-0.5 l 0,-0.8 C 3.7,37.2 3.9,37 4.2,37 l 3.9,0 c 0.3,0 0.5,0.2 0.5,0.5 l 0,0.8 c 0,0.3 -0.2,0.5 -0.5,0.5 z"
       id="path263"
       inkscape:connector-curvature="0"
       style="fill:none;stroke:#231f20;stroke-width:2;stroke-miterlimit:10" /><path
       class="st4"
       d="m 8.1,32.8 -3.9,0 c -0.3,0 -0.5,-0.2 -0.5,-0.5 l 0,-0.8 C 3.7,31.2 3.9,31 4.2,31 l 3.9,0 c 0.3,0 0.5,0.2 0.5,0.5 l 0,0.8 c 0,0.3 -0.2,0.5 -0.5,0.5 z"
       id="path267"
       inkscape:connector-curvature="0"
       style="fill:none;stroke:#231f20;stroke-width:2;stroke-miterlimit:10" /><path
       class="st4"
       d="m 8.1,26.8 -3.9,0 c -0.3,0 -0.5,-0.2 -0.5,-0.5 l 0,-0.8 C 3.7,25.2 3.9,25 4.2,25 l 3.9,0 c 0.3,0 0.5,0.2 0.5,0.5 l 0,0.8 c 0,0.3 -0.2,0.5 -0.5,0.5 z"
       id="path271"
       inkscape:connector-curvature="0"
       style="fill:none;stroke:#231f20;stroke-width:2;stroke-miterlimit:10" /><path
       class="st4"
       d="m 8.1,20.8 -3.9,0 c -0.3,0 -0.5,-0.2 -0.5,-0.5 l 0,-0.8 C 3.7,19.2 3.9,19 4.2,19 l 3.9,0 c 0.3,0 0.5,0.2 0.5,0.5 l 0,0.8 c 0,0.3 -0.2,0.5 -0.5,0.5 z"
       id="path275"
       inkscape:connector-curvature="0"
       style="fill:none;stroke:#231f20;stroke-width:2;stroke-miterlimit:10" /><path
       class="st4"
       d="m 8.1,14.8 -3.9,0 c -0.3,0 -0.5,-0.2 -0.5,-0.5 l 0,-0.8 C 3.7,13.2 3.9,13 4.2,13 l 3.9,0 c 0.3,0 0.5,0.2 0.5,0.5 l 0,0.8 c 0,0.3 -0.2,0.5 -0.5,0.5 z"
       id="path279"
       inkscape:connector-curvature="0"
       style="fill:none;stroke:#231f20;stroke-width:2;stroke-miterlimit:10" /><path
       style="fill:#231f20"
       inkscape:connector-curvature="0"
       id="path287"
       d="m 50.1,8.6 c 2.6,0 4.7,2.1 4.7,4.7 l 0,37.2 c 0,2.6 -2.1,4.7 -4.7,4.7 l -37.1,0 c -2.6,0 -4.7,-2.1 -4.7,-4.7 l 0,-37.2 c 0,-2.6 2.1,-4.7 4.7,-4.7 l 37.1,0 m 0,-1 -37.1,0 c -3.1,0 -5.7,2.6 -5.7,5.7 l 0,37.2 c 0,3.1 2.6,5.7 5.7,5.7 l 37.2,0 c 3.1,0 5.7,-2.6 5.7,-5.7 l 0,-37.2 C 55.8,10.2 53.2,7.6 50.1,7.6 l 0,0 z"
       class="st5" /><path
       style="fill:#231f20"
       inkscape:connector-curvature="0"
       id="path289"
       d="m 50.1,10.6 c 1.5,0 2.7,1.2 2.7,2.7 l 0,37.2 c 0,1.5 -1.2,2.7 -2.7,2.7 l -37.1,0 c -1.5,0 -2.7,-1.2 -2.7,-2.7 l 0,-37.2 c 0,-1.5 1.2,-2.7 2.7,-2.7 l 37.1,0 m 0,-3 -37.1,0 c -3.1,0 -5.7,2.6 -5.7,5.7 l 0,37.2 c 0,3.1 2.6,5.7 5.7,5.7 l 37.2,0 c 3.1,0 5.7,-2.6 5.7,-5.7 l 0,-37.2 C 55.8,10.2 53.2,7.6 50.1,7.6 l 0,0 z"
       class="st5" /><path
       class="st6"
       d="m 30.2,23.2 c -0.3,-0.8 -0.6,-1.5 -0.9,-1.9 -0.3,-0.5 -0.6,-0.9 -1,-1.1 -0.3,-0.3 -0.7,-0.5 -1.1,-0.5 -0.4,-0.1 -0.8,-0.1 -1.3,-0.1 -0.5,0 -1,0 -1.7,0.1 -0.7,0.1 -1.2,0.2 -1.7,0.3 l 0,-5 c 0.7,-0.2 1.4,-0.3 2.2,-0.4 0.8,-0.1 1.4,-0.2 2,-0.2 1.1,0 2.2,0.1 3.1,0.3 0.9,0.2 1.7,0.6 2.5,1.2 0.7,0.6 1.4,1.4 2.1,2.5 0.6,1.1 1.2,2.4 1.8,4.1 l 6.6,19.4 c 0.3,1 0.7,1.6 1,2 0.3,0.4 0.7,0.5 1.2,0.5 0.1,0 0.3,0 0.5,0 0.2,0 0.4,0 0.5,-0.1 l 0,4.6 c -0.7,0.2 -1.2,0.3 -1.7,0.4 -0.5,0.1 -0.9,0.1 -1.4,0.1 -0.8,0 -1.4,-0.1 -1.9,-0.3 -0.5,-0.2 -1,-0.5 -1.4,-0.9 -0.4,-0.4 -0.8,-0.9 -1.1,-1.6 -0.3,-0.7 -0.7,-1.5 -1,-2.5 L 34.3,34.7 33,31.1 31.7,34.7 26.2,49 19.8,49 30.4,23.7 30.2,23.2 Z"
       id="path299"
       inkscape:connector-curvature="0"
       style="fill:none;stroke:#231f20;stroke-width:4;stroke-miterlimit:10" /></g></svg>