<?xml version="1.0" encoding="UTF-8" standalone="no"?>
<!-- Generator: Adobe Illustrator 18.1.1, SVG Export Plug-In . SVG Version: 6.00 Build 0)  -->

<svg
   xmlns:dc="http://purl.org/dc/elements/1.1/"
   xmlns:cc="http://creativecommons.org/ns#"
   xmlns:rdf="http://www.w3.org/1999/02/22-rdf-syntax-ns#"
   xmlns:svg="http://www.w3.org/2000/svg"
   xmlns="http://www.w3.org/2000/svg"
   xmlns:sodipodi="http://sodipodi.sourceforge.net/DTD/sodipodi-0.dtd"
   xmlns:inkscape="http://www.inkscape.org/namespaces/inkscape"
   version="1.1"
   id="Layer_1"
   x="0px"
   y="0px"
   viewBox="0 0 63 63"
   style="enable-background:new 0 0 63 63;"
   xml:space="preserve"
   inkscape:version="0.91 r13725"
   sodipodi:docname="icon_dark.svg"><metadata
     id="metadata305"><rdf:RDF><cc:Work
         rdf:about=""><dc:format>image/svg+xml</dc:format><dc:type
           rdf:resource="http://purl.org/dc/dcmitype/StillImage" /></cc:Work></rdf:RDF></metadata><defs
     id="defs303" /><sodipodi:namedview
     pagecolor="#ffffff"
     bordercolor="#666666"
     borderopacity="1"
     objecttolerance="10"
     gridtolerance="10"
     guidetolerance="10"
     inkscape:pageopacity="0"
     inkscape:pageshadow="2"
     inkscape:window-width="2560"
     inkscape:window-height="1416"
     id="namedview301"
     showgrid="false"
     inkscape:zoom="7.4920635"
     inkscape:cx="34.850206"
     inkscape:cy="33.46573"
     inkscape:window-x="1920"
     inkscape:window-y="24"
     inkscape:window-maximized="1"
     inkscape:current-layer="Layer_1" /><style
     type="text/css"
     id="style3">
	.st0{fill:none;stroke:#0D4200;stroke-width:3;stroke-miterlimit:10;}
	.st1{fill:none;stroke:#231F20;stroke-width:3;stroke-miterlimit:10;}
	.st2{opacity:0.15;}
	.st3{fill:none;stroke:#000000;stroke-width:2;stroke-miterlimit:10;}
	.st4{fill:none;stroke:#231F20;stroke-width:2;stroke-miterlimit:10;}
	.st5{fill:#231F20;}
	.st6{fill:none;stroke:#231F20;stroke-width:4;stroke-miterlimit:10;}
</style><path
     class="st0"
     d="M 12.8,7.3640481"
     id="path9"
     inkscape:connector-curvature="0"
     style="fill:none;stroke:#0d4200;stroke-width:3;stroke-miterlimit:10" /><path
     class="st1"
     d="M 12.8,7.3640481"
     id="path13"
     inkscape:connector-curvature="0"
     style="fill:none;stroke:#231f20;stroke-width:3;stroke-miterlimit:10" /><path
     class="st0"
     d="M 54.3,52.1"
     id="path19"
     inkscape:connector-curvature="0"
     style="fill:none;stroke:#0d4200;stroke-width:3;stroke-miterlimit:10" /><path
     class="st1"
     d="M 54.3,52.1"
     id="path23"
     inkscape:connector-curvature="0"
     style="fill:none;stroke:#231f20;stroke-width:3;stroke-miterlimit:10" /><path
     class="st0"
     d="M 19.7,4.5640481"
     id="path29"
     inkscape:connector-curvature="0"
     style="fill:none;stroke:#0d4200;stroke-width:3;stroke-miterlimit:10" /><path
     class="st1"
     d="M 19.7,4.5640481"
     id="path33"
     inkscape:connector-curvature="0"
     style="fill:none;stroke:#231f20;stroke-width:3;stroke-miterlimit:10" /><path
     class="st0"
     d="M 58.6,14.1"
     id="path39"
     inkscape:connector-curvature="0"
     style="fill:none;stroke:#0d4200;stroke-width:3;stroke-miterlimit:10" /><path
     class="st1"
     d="M 58.6,14.1"
     id="path43"
     inkscape:connector-curvature="0"
     style="fill:none;stroke:#231f20;stroke-width:3;stroke-miterlimit:10" /><path
     class="st0"
     d="M 49.6,3.9696673"
     id="path49"
     inkscape:connector-curvature="0"
     style="fill:none;stroke:#0d4200;stroke-width:3;stroke-miterlimit:10" /><path
     class="st1"
     d="M 49.6,3.9696673"
     id="path53"
     inkscape:connector-curvature="0"
     style="fill:none;stroke:#231f20;stroke-width:3;stroke-miterlimit:10" /><path
     class="st0"
     d="M 37.7,4.4696673"
     id="path59"
     inkscape:connector-curvature="0"
     style="fill:none;stroke:#0d4200;stroke-width:3;stroke-miterlimit:10" /><path
     class="st1"
     d="M 37.7,4.4696673"
     id="path63"
     inkscape:connector-curvature="0"
     style="fill:none;stroke:#231f20;stroke-width:3;stroke-miterlimit:10" /><path
     class="st0"
     d="M 58.6,19.9"
     id="path69"
     inkscape:connector-curvature="0"
     style="fill:none;stroke:#0d4200;stroke-width:3;stroke-miterlimit:10" /><path
     class="st1"
     d="M 58.6,19.9"
     id="path73"
     inkscape:connector-curvature="0"
     style="fill:none;stroke:#231f20;stroke-width:3;stroke-miterlimit:10" /><path
     class="st0"
     d="M 58.6,25.9"
     id="path79"
     inkscape:connector-curvature="0"
     style="fill:none;stroke:#0d4200;stroke-width:3;stroke-miterlimit:10" /><path
     class="st1"
     d="M 58.6,25.9"
     id="path83"
     inkscape:connector-curvature="0"
     style="fill:none;stroke:#231f20;stroke-width:3;stroke-miterlimit:10" /><path
     class="st0"
     d="M 59.7,43.6"
     id="path89"
     inkscape:connector-curvature="0"
     style="fill:none;stroke:#0d4200;stroke-width:3;stroke-miterlimit:10" /><path
     class="st1"
     d="M 59.7,43.6"
     id="path93"
     inkscape:connector-curvature="0"
     style="fill:none;stroke:#231f20;stroke-width:3;stroke-miterlimit:10" /><path
     style="fill:none;stroke:#000000;stroke-width:2;stroke-miterlimit:10"
     inkscape:connector-curvature="0"
     id="path103"
     d="m 12.8,9.0640481 0,-3.9 c 0,-0.3 0.2,-0.5 0.5,-0.5 l 0.7,0 c 0.3,0 0.5,0.2 0.5,0.5 l 0,3.9 c 0,0.3 -0.2,0.5 -0.5,0.5 l -0.8,0 c -0.2,0 -0.4,-0.2 -0.4,-0.5 z"
     class="st3" /><path
     style="fill:none;stroke:#000000;stroke-width:2;stroke-miterlimit:10"
     inkscape:connector-curvature="0"
     id="path105"
     d="m 18.8,9.0640481 0,-3.9 c 0,-0.3 0.2,-0.5 0.5,-0.5 l 0.7,0 c 0.3,0 0.5,0.2 0.5,0.5 l 0,3.9 c 0,0.3 -0.2,0.5 -0.5,0.5 l -0.8,0 c -0.2,0 -0.4,-0.2 -0.4,-0.5 z"
     class="st3" /><path
     style="fill:none;stroke:#000000;stroke-width:2;stroke-miterlimit:10"
     inkscape:connector-curvature="0"
     id="path107"
     d="m 24.8,9.0640481 0,-3.9 c 0,-0.3 0.2,-0.5 0.5,-0.5 l 0.7,0 c 0.3,0 0.5,0.2 0.5,0.5 l 0,3.9 c 0,0.3 -0.2,0.5 -0.5,0.5 l -0.8,0 c -0.2,0 -0.4,-0.2 -0.4,-0.5 z"
     class="st3" /><path
     style="fill:none;stroke:#000000;stroke-width:2;stroke-miterlimit:10"
     inkscape:connector-curvature="0"
     id="path109"
     d="m 30.8,9.0168577 0,-3.9 c 0,-0.3 0.2,-0.5 0.5,-0.5 l 0.7,0 c 0.3,0 0.5,0.2 0.5,0.5 l 0,3.9 c 0,0.3 -0.2,0.5 -0.5,0.5 l -0.8,0 c -0.2,0 -0.4,-0.2 -0.4,-0.5 z"
     class="st3" /><path
     style="fill:none;stroke:#000000;stroke-width:2;stroke-miterlimit:10"
     inkscape:connector-curvature="0"
     id="path111"
     d="m 36.8,8.9696673 0,-3.9 c 0,-0.3 0.2,-0.5 0.5,-0.5 l 0.7,0 c 0.3,0 0.5,0.2 0.5,0.5 l 0,3.9 c 0,0.3 -0.2,0.5 -0.5,0.5 l -0.8,0 c -0.2,0 -0.4,-0.2 -0.4,-0.5 z"
     class="st3" /><path
     style="fill:none;stroke:#000000;stroke-width:2;stroke-miterlimit:10"
     inkscape:connector-curvature="0"
     id="path113"
     d="m 42.8,9.1112384 0,-3.9 c 0,-0.3 0.2,-0.5 0.5,-0.5 l 0.7,0 c 0.3,0 0.5,0.2 0.5,0.5 l 0,3.9 c 0,0.3 -0.2,0.5 -0.5,0.5 l -0.8,0 c -0.2,0 -0.4,-0.2 -0.4,-0.5 z"
     class="st3" /><path
     style="fill:none;stroke:#000000;stroke-width:2;stroke-miterlimit:10"
     inkscape:connector-curvature="0"
     id="path115"
     d="m 48.8,8.9696673 0,-3.9 c 0,-0.3 0.2,-0.5 0.5,-0.5 l 0.7,0 c 0.3,0 0.5,0.2 0.5,0.5 l 0,3.9 c 0,0.3 -0.2,0.5 -0.5,0.5 l -0.8,0 c -0.2,0 -0.4,-0.2 -0.4,-0.5 z"
     class="st3" /><path
     style="fill:none;stroke:#000000;stroke-width:2;stroke-miterlimit:10"
     inkscape:connector-curvature="0"
     id="path117"
     d="m 55.2,14 3.9,0 c 0.3,0 0.5,0.2 0.5,0.5 l 0,0.8 c 0,0.3 -0.2,0.5 -0.5,0.5 l -3.9,0 c -0.3,0 -0.5,-0.2 -0.5,-0.5 l 0,-0.8 c 0,-0.3 0.2,-0.5 0.5,-0.5 z"
     class="st3" /><path
     style="fill:none;stroke:#000000;stroke-width:2;stroke-miterlimit:10"
     inkscape:connector-curvature="0"
     id="path119"
     d="m 55.2,20 3.9,0 c 0.3,0 0.5,0.2 0.5,0.5 l 0,0.8 c 0,0.3 -0.2,0.5 -0.5,0.5 l -3.9,0 c -0.3,0 -0.5,-0.2 -0.5,-0.5 l 0,-0.8 c 0,-0.3 0.2,-0.5 0.5,-0.5 z"
     class="st3" /><path
     style="fill:none;stroke:#000000;stroke-width:2;stroke-miterlimit:10"
     inkscape:connector-curvature="0"
     id="path121"
     d="m 55.2,26 3.9,0 c 0.3,0 0.5,0.2 0.5,0.5 l 0,0.8 c 0,0.3 -0.2,0.5 -0.5,0.5 l -3.9,0 c -0.3,0 -0.5,-0.2 -0.5,-0.5 l 0,-0.8 c 0,-0.3 0.2,-0.5 0.5,-0.5 z"
     class="st3" /><path
     style="fill:none;stroke:#000000;stroke-width:2;stroke-miterlimit:10"
     inkscape:connector-curvature="0"
     id="path123"
     d="m 55.2,32 3.9,0 c 0.3,0 0.5,0.2 0.5,0.5 l 0,0.8 c 0,0.3 -0.2,0.5 -0.5,0.5 l -3.9,0 c -0.3,0 -0.5,-0.2 -0.5,-0.5 l 0,-0.8 c 0,-0.3 0.2,-0.5 0.5,-0.5 z"
     class="st3" /><path
     style="fill:none;stroke:#000000;stroke-width:2;stroke-miterlimit:10"
     inkscape:connector-curvature="0"
     id="path125"
     d="m 55.2,38 3.9,0 c 0.3,0 0.5,0.2 0.5,0.5 l 0,0.8 c 0,0.3 -0.2,0.5 -0.5,0.5 l -3.9,0 c -0.3,0 -0.5,-0.2 -0.5,-0.5 l 0,-0.8 c 0,-0.3 0.2,-0.5 0.5,-0.5 z"
     class="st3" /><path
     style="fill:none;stroke:#000000;stroke-width:2;stroke-miterlimit:10"
     inkscape:connector-curvature="0"
     id="path127"
     d="m 55.2,44 3.9,0 c 0.3,0 0.5,0.2 0.5,0.5 l 0,0.8 c 0,0.3 -0.2,0.5 -0.5,0.5 l -3.9,0 c -0.3,0 -0.5,-0.2 -0.5,-0.5 l 0,-0.8 c 0,-0.3 0.2,-0.5 0.5,-0.5 z"
     class="st3" /><path
     style="fill:none;stroke:#000000;stroke-width:2;stroke-miterlimit:10"
     inkscape:connector-curvature="0"
     id="path129"
     d="m 55.2,50 3.9,0 c 0.3,0 0.5,0.2 0.5,0.5 l 0,0.8 c 0,0.3 -0.2,0.5 -0.5,0.5 l -3.9,0 c -0.3,0 -0.5,-0.2 -0.5,-0.5 l 0,-0.8 c 0,-0.3 0.2,-0.5 0.5,-0.5 z"
     class="st3" /><path
     style="fill:none;stroke:#000000;stroke-width:2;stroke-miterlimit:10"
     inkscape:connector-curvature="0"
     id="path131"
     d="m 50.5,56.4 0,3.9 c 0,0.3 -0.2,0.5 -0.5,0.5 l -0.8,0 c -0.3,0 -0.5,-0.2 -0.5,-0.5 l 0,-3.9 c 0,-0.3 0.2,-0.5 0.5,-0.5 l 0.8,0 c 0.3,0 0.5,0.3 0.5,0.5 z"
     class="st3" /><path
     style="fill:none;stroke:#000000;stroke-width:2;stroke-miterlimit:10"
     inkscape:connector-curvature="0"
     id="path133"
     d="m 44.5,56.4 0,3.9 c 0,0.3 -0.2,0.5 -0.5,0.5 l -0.8,0 c -0.3,0 -0.5,-0.2 -0.5,-0.5 l 0,-3.9 c 0,-0.3 0.2,-0.5 0.5,-0.5 l 0.8,0 c 0.3,0 0.5,0.3 0.5,0.5 z"
     class="st3" /><path
     style="fill:none;stroke:#000000;stroke-width:2;stroke-miterlimit:10"
     inkscape:connector-curvature="0"
     id="path135"
     d="m 38.5,56.4 0,3.9 c 0,0.3 -0.2,0.5 -0.5,0.5 l -0.8,0 c -0.3,0 -0.5,-0.2 -0.5,-0.5 l 0,-3.9 c 0,-0.3 0.2,-0.5 0.5,-0.5 l 0.8,0 c 0.3,0 0.5,0.3 0.5,0.5 z"
     class="st3" /><path
     style="fill:none;stroke:#000000;stroke-width:2;stroke-miterlimit:10"
     inkscape:connector-curvature="0"
     id="path137"
     d="m 32.5,56.4 0,3.9 c 0,0.3 -0.2,0.5 -0.5,0.5 l -0.8,0 c -0.3,0 -0.5,-0.2 -0.5,-0.5 l 0,-3.9 c 0,-0.3 0.2,-0.5 0.5,-0.5 l 0.8,0 c 0.3,0 0.5,0.3 0.5,0.5 z"
     class="st3" /><path
     style="fill:none;stroke:#000000;stroke-width:2;stroke-miterlimit:10"
     inkscape:connector-curvature="0"
     id="path139"
     d="m 26.5,56.4 0,3.9 c 0,0.3 -0.2,0.5 -0.5,0.5 l -0.8,0 c -0.3,0 -0.5,-0.2 -0.5,-0.5 l 0,-3.9 c 0,-0.3 0.2,-0.5 0.5,-0.5 l 0.8,0 c 0.3,0 0.5,0.3 0.5,0.5 z"
     class="st3" /><path
     style="fill:none;stroke:#000000;stroke-width:2;stroke-miterlimit:10"
     inkscape:connector-curvature="0"
     id="path141"
     d="m 20.5,56.4 0,3.9 c 0,0.3 -0.2,0.5 -0.5,0.5 l -0.8,0 c -0.3,0 -0.5,-0.2 -0.5,-0.5 l 0,-3.9 c 0,-0.3 0.2,-0.5 0.5,-0.5 l 0.8,0 c 0.3,0 0.5,0.3 0.5,0.5 z"
     class="st3" /><path
     style="fill:none;stroke:#000000;stroke-width:2;stroke-miterlimit:10"
     inkscape:connector-curvature="0"
     id="path143"
     d="m 14.5,56.4 0,3.9 c 0,0.3 -0.2,0.5 -0.5,0.5 l -0.8,0 c -0.3,0 -0.5,-0.2 -0.5,-0.5 l 0,-3.9 c 0,-0.3 0.2,-0.5 0.5,-0.5 l 0.8,0 c 0.3,0 0.5,0.3 0.5,0.5 z"
     class="st3" /><path
     style="fill:none;stroke:#000000;stroke-width:2;stroke-miterlimit:10"
     inkscape:connector-curvature="0"
     id="path145"
     d="m 8.1,51.8 -3.9,0 c -0.3,0 -0.5,-0.2 -0.5,-0.5 l 0,-0.8 C 3.7,50.2 3.9,50 4.2,50 l 3.9,0 c 0.3,0 0.5,0.2 0.5,0.5 l 0,0.8 c 0,0.3 -0.2,0.5 -0.5,0.5 z"
     class="st3" /><path
     style="fill:none;stroke:#000000;stroke-width:2;stroke-miterlimit:10"
     inkscape:connector-curvature="0"
     id="path147"
     d="m 8.1,45.8 -3.9,0 c -0.3,0 -0.5,-0.2 -0.5,-0.5 l 0,-0.8 C 3.7,44.2 3.9,44 4.2,44 l 3.9,0 c 0.3,0 0.5,0.2 0.5,0.5 l 0,0.8 c 0,0.3 -0.2,0.5 -0.5,0.5 z"
     class="st3" /><path
     style="fill:none;stroke:#000000;stroke-width:2;stroke-miterlimit:10"
     inkscape:connector-curvature="0"
     id="path149"
     d="m 8.1,39.8 -3.9,0 c -0.3,0 -0.5,-0.2 -0.5,-0.5 l 0,-0.8 C 3.7,38.2 3.9,38 4.2,38 l 3.9,0 c 0.3,0 0.5,0.2 0.5,0.5 l 0,0.8 c 0,0.3 -0.2,0.5 -0.5,0.5 z"
     class="st3" /><path
     style="fill:none;stroke:#000000;stroke-width:2;stroke-miterlimit:10"
     inkscape:connector-curvature="0"
     id="path151"
     d="m 8.1,33.8 -3.9,0 c -0.3,0 -0.5,-0.2 -0.5,-0.5 l 0,-0.8 C 3.7,32.2 3.9,32 4.2,32 l 3.9,0 c 0.3,0 0.5,0.2 0.5,0.5 l 0,0.8 c 0,0.3 -0.2,0.5 -0.5,0.5 z"
     class="st3" /><path
     style="fill:none;stroke:#000000;stroke-width:2;stroke-miterlimit:10"
     inkscape:connector-curvature="0"
     id="path153"
     d="m 8.1,27.8 -3.9,0 c -0.3,0 -0.5,-0.2 -0.5,-0.5 l 0,-0.8 C 3.7,26.2 3.9,26 4.2,26 l 3.9,0 c 0.3,0 0.5,0.2 0.5,0.5 l 0,0.8 c 0,0.3 -0.2,0.5 -0.5,0.5 z"
     class="st3" /><path
     style="fill:none;stroke:#000000;stroke-width:2;stroke-miterlimit:10"
     inkscape:connector-curvature="0"
     id="path155"
     d="m 8.1,21.8 -3.9,0 c -0.3,0 -0.5,-0.2 -0.5,-0.5 l 0,-0.8 C 3.7,20.2 3.9,20 4.2,20 l 3.9,0 c 0.3,0 0.5,0.2 0.5,0.5 l 0,0.8 c 0,0.3 -0.2,0.5 -0.5,0.5 z"
     class="st3" /><path
     style="fill:none;stroke:#000000;stroke-width:2;stroke-miterlimit:10"
     inkscape:connector-curvature="0"
     id="path157"
     d="m 8.1,15.8 -3.9,0 c -0.3,0 -0.5,-0.2 -0.5,-0.5 l 0,-0.8 C 3.7,14.2 3.9,14 4.2,14 l 3.9,0 c 0.3,0 0.5,0.2 0.5,0.5 l 0,0.8 c 0,0.3 -0.2,0.5 -0.5,0.5 z"
     class="st3" /><path
     style="fill:none;stroke:#231f20;stroke-width:2;stroke-miterlimit:10"
     inkscape:connector-curvature="0"
     id="path165"
     d="m 12.8,8.0640481 0,-3.9 c 0,-0.3 0.2,-0.5 0.5,-0.5 l 0.7,0 c 0.3,0 0.5,0.2 0.5,0.5 l 0,3.9 c 0,0.3 -0.2,0.5 -0.5,0.5 l -0.8,0 c -0.2,0 -0.4,-0.2 -0.4,-0.5 z"
     class="st4" /><path
     style="fill:none;stroke:#231f20;stroke-width:2;stroke-miterlimit:10"
     inkscape:connector-curvature="0"
     id="path169"
     d="m 18.8,8.0640481 0,-3.9 c 0,-0.3 0.2,-0.5 0.5,-0.5 l 0.7,0 c 0.3,0 0.5,0.2 0.5,0.5 l 0,3.9 c 0,0.3 -0.2,0.5 -0.5,0.5 l -0.8,0 c -0.2,0 -0.4,-0.2 -0.4,-0.5 z"
     class="st4" /><path
     style="fill:none;stroke:#231f20;stroke-width:2;stroke-miterlimit:10"
     inkscape:connector-curvature="0"
     id="path173"
     d="m 24.8,8.0640481 0,-3.9 c 0,-0.3 0.2,-0.5 0.5,-0.5 l 0.7,0 c 0.3,0 0.5,0.2 0.5,0.5 l 0,3.9 c 0,0.3 -0.2,0.5 -0.5,0.5 l -0.8,0 c -0.2,0 -0.4,-0.2 -0.4,-0.5 z"
     class="st4" /><path
     style="fill:none;stroke:#231f20;stroke-width:2;stroke-miterlimit:10"
     inkscape:connector-curvature="0"
     id="path177"
     d="m 30.8,8.0168577 0,-3.9 c 0,-0.3 0.2,-0.5 0.5,-0.5 l 0.7,0 c 0.3,0 0.5,0.2 0.5,0.5 l 0,3.9 c 0,0.3 -0.2,0.5 -0.5,0.5 l -0.8,0 c -0.2,0 -0.4,-0.2 -0.4,-0.5 z"
     class="st4" /><path
     style="fill:none;stroke:#231f20;stroke-width:2;stroke-miterlimit:10"
     inkscape:connector-curvature="0"
     id="path181"
     d="m 36.8,7.9696673 0,-3.9 c 0,-0.3 0.2,-0.5 0.5,-0.5 l 0.7,0 c 0.3,0 0.5,0.2 0.5,0.5 l 0,3.9 c 0,0.3 -0.2,0.5 -0.5,0.5 l -0.8,0 c -0.2,0 -0.4,-0.2 -0.4,-0.5 z"
     class="st4" /><path
     style="fill:none;stroke:#231f20;stroke-width:2;stroke-miterlimit:10"
     inkscape:connector-curvature="0"
     id="path185"
     d="m 42.8,8.1112384 0,-3.9 c 0,-0.3 0.2,-0.5 0.5,-0.5 l 0.7,0 c 0.3,0 0.5,0.2 0.5,0.5 l 0,3.9 c 0,0.3 -0.2,0.5 -0.5,0.5 l -0.8,0 c -0.2,0 -0.4,-0.2 -0.4,-0.5 z"
     class="st4" /><path
     style="fill:none;stroke:#231f20;stroke-width:2;stroke-miterlimit:10"
     inkscape:connector-curvature="0"
     id="path189"
     d="m 48.8,7.9696673 0,-3.9 c 0,-0.3 0.2,-0.5 0.5,-0.5 l 0.7,0 c 0.3,0 0.5,0.2 0.5,0.5 l 0,3.9 c 0,0.3 -0.2,0.5 -0.5,0.5 l -0.8,0 c -0.2,0 -0.4,-0.2 -0.4,-0.5 z"
     class="st4" /><path
     style="fill:none;stroke:#231f20;stroke-width:2;stroke-miterlimit:10"
     inkscape:connector-curvature="0"
     id="path195"
     d="m 55.2,13 3.9,0 c 0.3,0 0.5,0.2 0.5,0.5 l 0,0.8 c 0,0.3 -0.2,0.5 -0.5,0.5 l -3.9,0 c -0.3,0 -0.5,-0.2 -0.5,-0.5 l 0,-0.8 c 0,-0.3 0.2,-0.5 0.5,-0.5 z"
     class="st4" /><path
     style="fill:none;stroke:#231f20;stroke-width:2;stroke-miterlimit:10"
     inkscape:connector-curvature="0"
     id="path199"
     d="m 55.2,19 3.9,0 c 0.3,0 0.5,0.2 0.5,0.5 l 0,0.8 c 0,0.3 -0.2,0.5 -0.5,0.5 l -3.9,0 c -0.3,0 -0.5,-0.2 -0.5,-0.5 l 0,-0.8 c 0,-0.3 0.2,-0.5 0.5,-0.5 z"
     class="st4" /><path
     style="fill:none;stroke:#231f20;stroke-width:2;stroke-miterlimit:10"
     inkscape:connector-curvature="0"
     id="path203"
     d="m 55.2,25 3.9,0 c 0.3,0 0.5,0.2 0.5,0.5 l 0,0.8 c 0,0.3 -0.2,0.5 -0.5,0.5 l -3.9,0 c -0.3,0 -0.5,-0.2 -0.5,-0.5 l 0,-0.8 c 0,-0.3 0.2,-0.5 0.5,-0.5 z"
     class="st4" /><path
     style="fill:none;stroke:#231f20;stroke-width:2;stroke-miterlimit:10"
     inkscape:connector-curvature="0"
     id="path207"
     d="m 55.2,31 3.9,0 c 0.3,0 0.5,0.2 0.5,0.5 l 0,0.8 c 0,0.3 -0.2,0.5 -0.5,0.5 l -3.9,0 c -0.3,0 -0.5,-0.2 -0.5,-0.5 l 0,-0.8 c 0,-0.3 0.2,-0.5 0.5,-0.5 z"
     class="st4" /><path
     style="fill:none;stroke:#231f20;stroke-width:2;stroke-miterlimit:10"
     inkscape:connector-curvature="0"
     id="path211"
     d="m 55.2,37 3.9,0 c 0.3,0 0.5,0.2 0.5,0.5 l 0,0.8 c 0,0.3 -0.2,0.5 -0.5,0.5 l -3.9,0 c -0.3,0 -0.5,-0.2 -0.5,-0.5 l 0,-0.8 c 0,-0.3 0.2,-0.5 0.5,-0.5 z"
     class="st4" /><path
     style="fill:none;stroke:#231f20;stroke-width:2;stroke-miterlimit:10"
     inkscape:connector-curvature="0"
     id="path215"
     d="m 55.2,43 3.9,0 c 0.3,0 0.5,0.2 0.5,0.5 l 0,0.8 c 0,0.3 -0.2,0.5 -0.5,0.5 l -3.9,0 c -0.3,0 -0.5,-0.2 -0.5,-0.5 l 0,-0.8 c 0,-0.3 0.2,-0.5 0.5,-0.5 z"
     class="st4" /><path
     style="fill:none;stroke:#231f20;stroke-width:2;stroke-miterlimit:10"
     inkscape:connector-curvature="0"
     id="path219"
     d="m 55.2,49 3.9,0 c 0.3,0 0.5,0.2 0.5,0.5 l 0,0.8 c 0,0.3 -0.2,0.5 -0.5,0.5 l -3.9,0 c -0.3,0 -0.5,-0.2 -0.5,-0.5 l 0,-0.8 c 0,-0.3 0.2,-0.5 0.5,-0.5 z"
     class="st4" /><path
     style="fill:none;stroke:#231f20;stroke-width:2;stroke-miterlimit:10"
     inkscape:connector-curvature="0"
     id="path225"
     d="m 50.5,55.4 0,3.9 c 0,0.3 -0.2,0.5 -0.5,0.5 l -0.8,0 c -0.3,0 -0.5,-0.2 -0.5,-0.5 l 0,-3.9 c 0,-0.3 0.2,-0.5 0.5,-0.5 l 0.8,0 c 0.3,0 0.5,0.3 0.5,0.5 z"
     class="st4" /><path
     style="fill:none;stroke:#231f20;stroke-width:2;stroke-miterlimit:10"
     inkscape:connector-curvature="0"
     id="path229"
     d="m 44.5,55.4 0,3.9 c 0,0.3 -0.2,0.5 -0.5,0.5 l -0.8,0 c -0.3,0 -0.5,-0.2 -0.5,-0.5 l 0,-3.9 c 0,-0.3 0.2,-0.5 0.5,-0.5 l 0.8,0 c 0.3,0 0.5,0.3 0.5,0.5 z"
     class="st4" /><path
     style="fill:none;stroke:#231f20;stroke-width:2;stroke-miterlimit:10"
     inkscape:connector-curvature="0"
     id="path233"
     d="m 38.5,55.4 0,3.9 c 0,0.3 -0.2,0.5 -0.5,0.5 l -0.8,0 c -0.3,0 -0.5,-0.2 -0.5,-0.5 l 0,-3.9 c 0,-0.3 0.2,-0.5 0.5,-0.5 l 0.8,0 c 0.3,0 0.5,0.3 0.5,0.5 z"
     class="st4" /><path
     style="fill:none;stroke:#231f20;stroke-width:2;stroke-miterlimit:10"
     inkscape:connector-curvature="0"
     id="path237"
     d="m 32.5,55.4 0,3.9 c 0,0.3 -0.2,0.5 -0.5,0.5 l -0.8,0 c -0.3,0 -0.5,-0.2 -0.5,-0.5 l 0,-3.9 c 0,-0.3 0.2,-0.5 0.5,-0.5 l 0.8,0 c 0.3,0 0.5,0.3 0.5,0.5 z"
     class="st4" /><path
     style="fill:none;stroke:#231f20;stroke-width:2;stroke-miterlimit:10"
     inkscape:connector-curvature="0"
     id="path241"
     d="m 26.5,55.4 0,3.9 c 0,0.3 -0.2,0.5 -0.5,0.5 l -0.8,0 c -0.3,0 -0.5,-0.2 -0.5,-0.5 l 0,-3.9 c 0,-0.3 0.2,-0.5 0.5,-0.5 l 0.8,0 c 0.3,0 0.5,0.3 0.5,0.5 z"
     class="st4" /><path
     style="fill:none;stroke:#231f20;stroke-width:2;stroke-miterlimit:10"
     inkscape:connector-curvature="0"
     id="path245"
     d="m 20.5,55.4 0,3.9 c 0,0.3 -0.2,0.5 -0.5,0.5 l -0.8,0 c -0.3,0 -0.5,-0.2 -0.5,-0.5 l 0,-3.9 c 0,-0.3 0.2,-0.5 0.5,-0.5 l 0.8,0 c 0.3,0 0.5,0.3 0.5,0.5 z"
     class="st4" /><path
     style="fill:none;stroke:#231f20;stroke-width:2;stroke-miterlimit:10"
     inkscape:connector-curvature="0"
     id="path249"
     d="m 14.5,55.4 0,3.9 c 0,0.3 -0.2,0.5 -0.5,0.5 l -0.8,0 c -0.3,0 -0.5,-0.2 -0.5,-0.5 l 0,-3.9 c 0,-0.3 0.2,-0.5 0.5,-0.5 l 0.8,0 c 0.3,0 0.5,0.3 0.5,0.5 z"
     class="st4" /><path
     style="fill:none;stroke:#231f20;stroke-width:2;stroke-miterlimit:10"
     inkscape:connector-curvature="0"
     id="path255"
     d="m 8.1,50.8 -3.9,0 c -0.3,0 -0.5,-0.2 -0.5,-0.5 l 0,-0.8 C 3.7,49.2 3.9,49 4.2,49 l 3.9,0 c 0.3,0 0.5,0.2 0.5,0.5 l 0,0.8 c 0,0.3 -0.2,0.5 -0.5,0.5 z"
     class="st4" /><path
     style="fill:none;stroke:#231f20;stroke-width:2;stroke-miterlimit:10"
     inkscape:connector-curvature="0"
     id="path259"
     d="m 8.1,44.8 -3.9,0 c -0.3,0 -0.5,-0.2 -0.5,-0.5 l 0,-0.8 C 3.7,43.2 3.9,43 4.2,43 l 3.9,0 c 0.3,0 0.5,0.2 0.5,0.5 l 0,0.8 c 0,0.3 -0.2,0.5 -0.5,0.5 z"
     class="st4" /><path
     style="fill:none;stroke:#231f20;stroke-width:2;stroke-miterlimit:10"
     inkscape:connector-curvature="0"
     id="path263"
     d="m 8.1,38.8 -3.9,0 c -0.3,0 -0.5,-0.2 -0.5,-0.5 l 0,-0.8 C 3.7,37.2 3.9,37 4.2,37 l 3.9,0 c 0.3,0 0.5,0.2 0.5,0.5 l 0,0.8 c 0,0.3 -0.2,0.5 -0.5,0.5 z"
     class="st4" /><path
     style="fill:none;stroke:#231f20;stroke-width:2;stroke-miterlimit:10"
     inkscape:connector-curvature="0"
     id="path267"
     d="m 8.1,32.8 -3.9,0 c -0.3,0 -0.5,-0.2 -0.5,-0.5 l 0,-0.8 C 3.7,31.2 3.9,31 4.2,31 l 3.9,0 c 0.3,0 0.5,0.2 0.5,0.5 l 0,0.8 c 0,0.3 -0.2,0.5 -0.5,0.5 z"
     class="st4" /><path
     style="fill:none;stroke:#231f20;stroke-width:2;stroke-miterlimit:10"
     inkscape:connector-curvature="0"
     id="path271"
     d="m 8.1,26.8 -3.9,0 c -0.3,0 -0.5,-0.2 -0.5,-0.5 l 0,-0.8 C 3.7,25.2 3.9,25 4.2,25 l 3.9,0 c 0.3,0 0.5,0.2 0.5,0.5 l 0,0.8 c 0,0.3 -0.2,0.5 -0.5,0.5 z"
     class="st4" /><path
     style="fill:none;stroke:#231f20;stroke-width:2;stroke-miterlimit:10"
     inkscape:connector-curvature="0"
     id="path275"
     d="m 8.1,20.8 -3.9,0 c -0.3,0 -0.5,-0.2 -0.5,-0.5 l 0,-0.8 C 3.7,19.2 3.9,19 4.2,19 l 3.9,0 c 0.3,0 0.5,0.2 0.5,0.5 l 0,0.8 c 0,0.3 -0.2,0.5 -0.5,0.5 z"
     class="st4" /><path
     style="fill:none;stroke:#231f20;stroke-width:2;stroke-miterlimit:10"
     inkscape:connector-curvature="0"
     id="path279"
     d="m 8.1,14.8 -3.9,0 c -0.3,0 -0.5,-0.2 -0.5,-0.5 l 0,-0.8 C 3.7,13.2 3.9,13 4.2,13 l 3.9,0 c 0.3,0 0.5,0.2 0.5,0.5 l 0,0.8 c 0,0.3 -0.2,0.5 -0.5,0.5 z"
     class="st4" /><path
     class="st5"
     d="m 50.1,8.6 c 2.6,0 4.7,2.1 4.7,4.7 l 0,37.2 c 0,2.6 -2.1,4.7 -4.7,4.7 l -37.1,0 c -2.6,0 -4.7,-2.1 -4.7,-4.7 l 0,-37.2 c 0,-2.6 2.1,-4.7 4.7,-4.7 l 37.1,0 m 0,-1 -37.1,0 c -3.1,0 -5.7,2.6 -5.7,5.7 l 0,37.2 c 0,3.1 2.6,5.7 5.7,5.7 l 37.2,0 c 3.1,0 5.7,-2.6 5.7,-5.7 l 0,-37.2 C 55.8,10.2 53.2,7.6 50.1,7.6 l 0,0 z"
     id="path287"
     inkscape:connector-curvature="0"
     style="fill:#231f20" /><path
     class="st5"
     d="m 50.1,10.6 c 1.5,0 2.7,1.2 2.7,2.7 l 0,37.2 c 0,1.5 -1.2,2.7 -2.7,2.7 l -37.1,0 c -1.5,0 -2.7,-1.2 -2.7,-2.7 l 0,-37.2 c 0,-1.5 1.2,-2.7 2.7,-2.7 l 37.1,0 m 0,-3 -37.1,0 c -3.1,0 -5.7,2.6 -5.7,5.7 l 0,37.2 c 0,3.1 2.6,5.7 5.7,5.7 l 37.2,0 c 3.1,0 5.7,-2.6 5.7,-5.7 l 0,-37.2 C 55.8,10.2 53.2,7.6 50.1,7.6 l 0,0 z"
     id="path289"
     inkscape:connector-curvature="0"
     style="fill:#231f20" /><path
     style="fill:none;stroke:#231f20;stroke-width:4;stroke-miterlimit:10"
     inkscape:connector-curvature="0"
     id="path299"
     d="m 30.2,23.2 c -0.3,-0.8 -0.6,-1.5 -0.9,-1.9 -0.3,-0.5 -0.6,-0.9 -1,-1.1 -0.3,-0.3 -0.7,-0.5 -1.1,-0.5 -0.4,-0.1 -0.8,-0.1 -1.3,-0.1 -0.5,0 -1,0 -1.7,0.1 -0.7,0.1 -1.2,0.2 -1.7,0.3 l 0,-5 c 0.7,-0.2 1.4,-0.3 2.2,-0.4 0.8,-0.1 1.4,-0.2 2,-0.2 1.1,0 2.2,0.1 3.1,0.3 0.9,0.2 1.7,0.6 2.5,1.2 0.7,0.6 1.4,1.4 2.1,2.5 0.6,1.1 1.2,2.4 1.8,4.1 l 6.6,19.4 c 0.3,1 0.7,1.6 1,2 0.3,0.4 0.7,0.5 1.2,0.5 0.1,0 0.3,0 0.5,0 0.2,0 0.4,0 0.5,-0.1 l 0,4.6 c -0.7,0.2 -1.2,0.3 -1.7,0.4 -0.5,0.1 -0.9,0.1 -1.4,0.1 -0.8,0 -1.4,-0.1 -1.9,-0.3 -0.5,-0.2 -1,-0.5 -1.4,-0.9 -0.4,-0.4 -0.8,-0.9 -1.1,-1.6 -0.3,-0.7 -0.7,-1.5 -1,-2.5 L 34.3,34.7 33,31.1 31.7,34.7 26.2,49 19.8,49 30.4,23.7 30.2,23.2 Z"
     class="st6" /></svg>