<?xml version="1.0" encoding="utf-8"?>
<!-- Generator: Adobe Illustrator 18.1.1, SVG Export Plug-In . SVG Version: 6.00 Build 0)  -->
<svg version="1.1" id="Layer_1" xmlns="http://www.w3.org/2000/svg" xmlns:xlink="http://www.w3.org/1999/xlink" x="0px" y="0px"
	 viewBox="0 0 63 63" style="enable-background:new 0 0 63 63;" xml:space="preserve">
<style type="text/css">
	.st0{fill:none;stroke:#0D4200;stroke-width:3;stroke-miterlimit:10;}
	.st1{fill:none;stroke:#231F20;stroke-width:3;stroke-miterlimit:10;}
	.st2{opacity:0.15;}
	.st3{fill:none;stroke:#000000;stroke-width:2;stroke-miterlimit:10;}
	.st4{fill:none;stroke:#231F20;stroke-width:2;stroke-miterlimit:10;}
	.st5{fill:#231F20;}
	.st6{fill:none;stroke:#231F20;stroke-width:4;stroke-miterlimit:10;}
</style>
<g>
	<g>
		<path class="st0" d="M12.8,7.6"/>
	</g>
	<g>
		<path class="st1" d="M12.8,7.6"/>
	</g>
</g>
<g>
	<g>
		<path class="st0" d="M54.3,52.1"/>
	</g>
	<g>
		<path class="st1" d="M54.3,52.1"/>
	</g>
</g>
<g>
	<g>
		<path class="st0" d="M19.7,4.8"/>
	</g>
	<g>
		<path class="st1" d="M19.7,4.8"/>
	</g>
</g>
<g>
	<g>
		<path class="st0" d="M58.6,14.1"/>
	</g>
	<g>
		<path class="st1" d="M58.6,14.1"/>
	</g>
</g>
<g>
	<g>
		<path class="st0" d="M49.6,4.3"/>
	</g>
	<g>
		<path class="st1" d="M49.6,4.3"/>
	</g>
</g>
<g>
	<g>
		<path class="st0" d="M37.7,4.8"/>
	</g>
	<g>
		<path class="st1" d="M37.7,4.8"/>
	</g>
</g>
<g>
	<g>
		<path class="st0" d="M58.6,19.9"/>
	</g>
	<g>
		<path class="st1" d="M58.6,19.9"/>
	</g>
</g>
<g>
	<g>
		<path class="st0" d="M58.6,25.9"/>
	</g>
	<g>
		<path class="st1" d="M58.6,25.9"/>
	</g>
</g>
<g>
	<g>
		<path class="st0" d="M59.7,43.6"/>
	</g>
	<g>
		<path class="st1" d="M59.7,43.6"/>
	</g>
</g>
<g>
	
		<image style="overflow:visible;" width="342" height="346" xlink:href="61400897A64EB9B2.png"  transform="matrix(0.24 0 0 0.24 -9.3257 -9.0959)">
	</image>
	<g>
		<g class="st2">
			<path class="st3" d="M12.8,9.3V5.4c0-0.3,0.2-0.5,0.5-0.5H14c0.3,0,0.5,0.2,0.5,0.5v3.9c0,0.3-0.2,0.5-0.5,0.5h-0.8
				C13,9.8,12.8,9.6,12.8,9.3z"/>
			<path class="st3" d="M18.8,9.3V5.4c0-0.3,0.2-0.5,0.5-0.5H20c0.3,0,0.5,0.2,0.5,0.5v3.9c0,0.3-0.2,0.5-0.5,0.5h-0.8
				C19,9.8,18.8,9.6,18.8,9.3z"/>
			<path class="st3" d="M24.8,9.3V5.4c0-0.3,0.2-0.5,0.5-0.5H26c0.3,0,0.5,0.2,0.5,0.5v3.9c0,0.3-0.2,0.5-0.5,0.5h-0.8
				C25,9.8,24.8,9.6,24.8,9.3z"/>
			<path class="st3" d="M30.8,9.3V5.4c0-0.3,0.2-0.5,0.5-0.5H32c0.3,0,0.5,0.2,0.5,0.5v3.9c0,0.3-0.2,0.5-0.5,0.5h-0.8
				C31,9.8,30.8,9.6,30.8,9.3z"/>
			<path class="st3" d="M36.8,9.3V5.4c0-0.3,0.2-0.5,0.5-0.5H38c0.3,0,0.5,0.2,0.5,0.5v3.9c0,0.3-0.2,0.5-0.5,0.5h-0.8
				C37,9.8,36.8,9.6,36.8,9.3z"/>
			<path class="st3" d="M42.8,9.3V5.4c0-0.3,0.2-0.5,0.5-0.5H44c0.3,0,0.5,0.2,0.5,0.5v3.9c0,0.3-0.2,0.5-0.5,0.5h-0.8
				C43,9.8,42.8,9.6,42.8,9.3z"/>
			<path class="st3" d="M48.8,9.3V5.4c0-0.3,0.2-0.5,0.5-0.5H50c0.3,0,0.5,0.2,0.5,0.5v3.9c0,0.3-0.2,0.5-0.5,0.5h-0.8
				C49,9.8,48.8,9.6,48.8,9.3z"/>
			<path class="st3" d="M55.2,14h3.9c0.3,0,0.5,0.2,0.5,0.5v0.8c0,0.3-0.2,0.5-0.5,0.5h-3.9c-0.3,0-0.5-0.2-0.5-0.5v-0.8
				C54.7,14.2,54.9,14,55.2,14z"/>
			<path class="st3" d="M55.2,20h3.9c0.3,0,0.5,0.2,0.5,0.5v0.8c0,0.3-0.2,0.5-0.5,0.5h-3.9c-0.3,0-0.5-0.2-0.5-0.5v-0.8
				C54.7,20.2,54.9,20,55.2,20z"/>
			<path class="st3" d="M55.2,26h3.9c0.3,0,0.5,0.2,0.5,0.5v0.8c0,0.3-0.2,0.5-0.5,0.5h-3.9c-0.3,0-0.5-0.2-0.5-0.5v-0.8
				C54.7,26.2,54.9,26,55.2,26z"/>
			<path class="st3" d="M55.2,32h3.9c0.3,0,0.5,0.2,0.5,0.5v0.8c0,0.3-0.2,0.5-0.5,0.5h-3.9c-0.3,0-0.5-0.2-0.5-0.5v-0.8
				C54.7,32.2,54.9,32,55.2,32z"/>
			<path class="st3" d="M55.2,38h3.9c0.3,0,0.5,0.2,0.5,0.5v0.8c0,0.3-0.2,0.5-0.5,0.5h-3.9c-0.3,0-0.5-0.2-0.5-0.5v-0.8
				C54.7,38.2,54.9,38,55.2,38z"/>
			<path class="st3" d="M55.2,44h3.9c0.3,0,0.5,0.2,0.5,0.5v0.8c0,0.3-0.2,0.5-0.5,0.5h-3.9c-0.3,0-0.5-0.2-0.5-0.5v-0.8
				C54.7,44.2,54.9,44,55.2,44z"/>
			<path class="st3" d="M55.2,50h3.9c0.3,0,0.5,0.2,0.5,0.5v0.8c0,0.3-0.2,0.5-0.5,0.5h-3.9c-0.3,0-0.5-0.2-0.5-0.5v-0.8
				C54.7,50.2,54.9,50,55.2,50z"/>
			<path class="st3" d="M50.5,56.4v3.9c0,0.3-0.2,0.5-0.5,0.5h-0.8c-0.3,0-0.5-0.2-0.5-0.5v-3.9c0-0.3,0.2-0.5,0.5-0.5H50
				C50.3,55.9,50.5,56.2,50.5,56.4z"/>
			<path class="st3" d="M44.5,56.4v3.9c0,0.3-0.2,0.5-0.5,0.5h-0.8c-0.3,0-0.5-0.2-0.5-0.5v-3.9c0-0.3,0.2-0.5,0.5-0.5H44
				C44.3,55.9,44.5,56.2,44.5,56.4z"/>
			<path class="st3" d="M38.5,56.4v3.9c0,0.3-0.2,0.5-0.5,0.5h-0.8c-0.3,0-0.5-0.2-0.5-0.5v-3.9c0-0.3,0.2-0.5,0.5-0.5H38
				C38.3,55.9,38.5,56.2,38.5,56.4z"/>
			<path class="st3" d="M32.5,56.4v3.9c0,0.3-0.2,0.5-0.5,0.5h-0.8c-0.3,0-0.5-0.2-0.5-0.5v-3.9c0-0.3,0.2-0.5,0.5-0.5H32
				C32.3,55.9,32.5,56.2,32.5,56.4z"/>
			<path class="st3" d="M26.5,56.4v3.9c0,0.3-0.2,0.5-0.5,0.5h-0.8c-0.3,0-0.5-0.2-0.5-0.5v-3.9c0-0.3,0.2-0.5,0.5-0.5H26
				C26.3,55.9,26.5,56.2,26.5,56.4z"/>
			<path class="st3" d="M20.5,56.4v3.9c0,0.3-0.2,0.5-0.5,0.5h-0.8c-0.3,0-0.5-0.2-0.5-0.5v-3.9c0-0.3,0.2-0.5,0.5-0.5H20
				C20.3,55.9,20.5,56.2,20.5,56.4z"/>
			<path class="st3" d="M14.5,56.4v3.9c0,0.3-0.2,0.5-0.5,0.5h-0.8c-0.3,0-0.5-0.2-0.5-0.5v-3.9c0-0.3,0.2-0.5,0.5-0.5H14
				C14.3,55.9,14.5,56.2,14.5,56.4z"/>
			<path class="st3" d="M8.1,51.8H4.2c-0.3,0-0.5-0.2-0.5-0.5v-0.8c0-0.3,0.2-0.5,0.5-0.5h3.9c0.3,0,0.5,0.2,0.5,0.5v0.8
				C8.6,51.6,8.4,51.8,8.1,51.8z"/>
			<path class="st3" d="M8.1,45.8H4.2c-0.3,0-0.5-0.2-0.5-0.5v-0.8c0-0.3,0.2-0.5,0.5-0.5h3.9c0.3,0,0.5,0.2,0.5,0.5v0.8
				C8.6,45.6,8.4,45.8,8.1,45.8z"/>
			<path class="st3" d="M8.1,39.8H4.2c-0.3,0-0.5-0.2-0.5-0.5v-0.8c0-0.3,0.2-0.5,0.5-0.5h3.9c0.3,0,0.5,0.2,0.5,0.5v0.8
				C8.6,39.6,8.4,39.8,8.1,39.8z"/>
			<path class="st3" d="M8.1,33.8H4.2c-0.3,0-0.5-0.2-0.5-0.5v-0.8c0-0.3,0.2-0.5,0.5-0.5h3.9c0.3,0,0.5,0.2,0.5,0.5v0.8
				C8.6,33.6,8.4,33.8,8.1,33.8z"/>
			<path class="st3" d="M8.1,27.8H4.2c-0.3,0-0.5-0.2-0.5-0.5v-0.8c0-0.3,0.2-0.5,0.5-0.5h3.9c0.3,0,0.5,0.2,0.5,0.5v0.8
				C8.6,27.6,8.4,27.8,8.1,27.8z"/>
			<path class="st3" d="M8.1,21.8H4.2c-0.3,0-0.5-0.2-0.5-0.5v-0.8c0-0.3,0.2-0.5,0.5-0.5h3.9c0.3,0,0.5,0.2,0.5,0.5v0.8
				C8.6,21.6,8.4,21.8,8.1,21.8z"/>
			<path class="st3" d="M8.1,15.8H4.2c-0.3,0-0.5-0.2-0.5-0.5v-0.8c0-0.3,0.2-0.5,0.5-0.5h3.9c0.3,0,0.5,0.2,0.5,0.5v0.8
				C8.6,15.6,8.4,15.8,8.1,15.8z"/>
		</g>
		<g>
			<g>
				<g>
					<path class="st4" d="M12.8,8.3V4.4c0-0.3,0.2-0.5,0.5-0.5H14c0.3,0,0.5,0.2,0.5,0.5v3.9c0,0.3-0.2,0.5-0.5,0.5h-0.8
						C13,8.8,12.8,8.6,12.8,8.3z"/>
				</g>
				<g>
					<path class="st4" d="M18.8,8.3V4.4c0-0.3,0.2-0.5,0.5-0.5H20c0.3,0,0.5,0.2,0.5,0.5v3.9c0,0.3-0.2,0.5-0.5,0.5h-0.8
						C19,8.8,18.8,8.6,18.8,8.3z"/>
				</g>
				<g>
					<path class="st4" d="M24.8,8.3V4.4c0-0.3,0.2-0.5,0.5-0.5H26c0.3,0,0.5,0.2,0.5,0.5v3.9c0,0.3-0.2,0.5-0.5,0.5h-0.8
						C25,8.8,24.8,8.6,24.8,8.3z"/>
				</g>
				<g>
					<path class="st4" d="M30.8,8.3V4.4c0-0.3,0.2-0.5,0.5-0.5H32c0.3,0,0.5,0.2,0.5,0.5v3.9c0,0.3-0.2,0.5-0.5,0.5h-0.8
						C31,8.8,30.8,8.6,30.8,8.3z"/>
				</g>
				<g>
					<path class="st4" d="M36.8,8.3V4.4c0-0.3,0.2-0.5,0.5-0.5H38c0.3,0,0.5,0.2,0.5,0.5v3.9c0,0.3-0.2,0.5-0.5,0.5h-0.8
						C37,8.8,36.8,8.6,36.8,8.3z"/>
				</g>
				<g>
					<path class="st4" d="M42.8,8.3V4.4c0-0.3,0.2-0.5,0.5-0.5H44c0.3,0,0.5,0.2,0.5,0.5v3.9c0,0.3-0.2,0.5-0.5,0.5h-0.8
						C43,8.8,42.8,8.6,42.8,8.3z"/>
				</g>
				<g>
					<path class="st4" d="M48.8,8.3V4.4c0-0.3,0.2-0.5,0.5-0.5H50c0.3,0,0.5,0.2,0.5,0.5v3.9c0,0.3-0.2,0.5-0.5,0.5h-0.8
						C49,8.8,48.8,8.6,48.8,8.3z"/>
				</g>
			</g>
			<g>
				<g>
					<path class="st4" d="M55.2,13h3.9c0.3,0,0.5,0.2,0.5,0.5v0.8c0,0.3-0.2,0.5-0.5,0.5h-3.9c-0.3,0-0.5-0.2-0.5-0.5v-0.8
						C54.7,13.2,54.9,13,55.2,13z"/>
				</g>
				<g>
					<path class="st4" d="M55.2,19h3.9c0.3,0,0.5,0.2,0.5,0.5v0.8c0,0.3-0.2,0.5-0.5,0.5h-3.9c-0.3,0-0.5-0.2-0.5-0.5v-0.8
						C54.7,19.2,54.9,19,55.2,19z"/>
				</g>
				<g>
					<path class="st4" d="M55.2,25h3.9c0.3,0,0.5,0.2,0.5,0.5v0.8c0,0.3-0.2,0.5-0.5,0.5h-3.9c-0.3,0-0.5-0.2-0.5-0.5v-0.8
						C54.7,25.2,54.9,25,55.2,25z"/>
				</g>
				<g>
					<path class="st4" d="M55.2,31h3.9c0.3,0,0.5,0.2,0.5,0.5v0.8c0,0.3-0.2,0.5-0.5,0.5h-3.9c-0.3,0-0.5-0.2-0.5-0.5v-0.8
						C54.7,31.2,54.9,31,55.2,31z"/>
				</g>
				<g>
					<path class="st4" d="M55.2,37h3.9c0.3,0,0.5,0.2,0.5,0.5v0.8c0,0.3-0.2,0.5-0.5,0.5h-3.9c-0.3,0-0.5-0.2-0.5-0.5v-0.8
						C54.7,37.2,54.9,37,55.2,37z"/>
				</g>
				<g>
					<path class="st4" d="M55.2,43h3.9c0.3,0,0.5,0.2,0.5,0.5v0.8c0,0.3-0.2,0.5-0.5,0.5h-3.9c-0.3,0-0.5-0.2-0.5-0.5v-0.8
						C54.7,43.2,54.9,43,55.2,43z"/>
				</g>
				<g>
					<path class="st4" d="M55.2,49h3.9c0.3,0,0.5,0.2,0.5,0.5v0.8c0,0.3-0.2,0.5-0.5,0.5h-3.9c-0.3,0-0.5-0.2-0.5-0.5v-0.8
						C54.7,49.2,54.9,49,55.2,49z"/>
				</g>
			</g>
			<g>
				<g>
					<path class="st4" d="M50.5,55.4v3.9c0,0.3-0.2,0.5-0.5,0.5h-0.8c-0.3,0-0.5-0.2-0.5-0.5v-3.9c0-0.3,0.2-0.5,0.5-0.5H50
						C50.3,54.9,50.5,55.2,50.5,55.4z"/>
				</g>
				<g>
					<path class="st4" d="M44.5,55.4v3.9c0,0.3-0.2,0.5-0.5,0.5h-0.8c-0.3,0-0.5-0.2-0.5-0.5v-3.9c0-0.3,0.2-0.5,0.5-0.5H44
						C44.3,54.9,44.5,55.2,44.5,55.4z"/>
				</g>
				<g>
					<path class="st4" d="M38.5,55.4v3.9c0,0.3-0.2,0.5-0.5,0.5h-0.8c-0.3,0-0.5-0.2-0.5-0.5v-3.9c0-0.3,0.2-0.5,0.5-0.5H38
						C38.3,54.9,38.5,55.2,38.5,55.4z"/>
				</g>
				<g>
					<path class="st4" d="M32.5,55.4v3.9c0,0.3-0.2,0.5-0.5,0.5h-0.8c-0.3,0-0.5-0.2-0.5-0.5v-3.9c0-0.3,0.2-0.5,0.5-0.5H32
						C32.3,54.9,32.5,55.2,32.5,55.4z"/>
				</g>
				<g>
					<path class="st4" d="M26.5,55.4v3.9c0,0.3-0.2,0.5-0.5,0.5h-0.8c-0.3,0-0.5-0.2-0.5-0.5v-3.9c0-0.3,0.2-0.5,0.5-0.5H26
						C26.3,54.9,26.5,55.2,26.5,55.4z"/>
				</g>
				<g>
					<path class="st4" d="M20.5,55.4v3.9c0,0.3-0.2,0.5-0.5,0.5h-0.8c-0.3,0-0.5-0.2-0.5-0.5v-3.9c0-0.3,0.2-0.5,0.5-0.5H20
						C20.3,54.9,20.5,55.2,20.5,55.4z"/>
				</g>
				<g>
					<path class="st4" d="M14.5,55.4v3.9c0,0.3-0.2,0.5-0.5,0.5h-0.8c-0.3,0-0.5-0.2-0.5-0.5v-3.9c0-0.3,0.2-0.5,0.5-0.5H14
						C14.3,54.9,14.5,55.2,14.5,55.4z"/>
				</g>
			</g>
			<g>
				<g>
					<path class="st4" d="M8.1,50.8H4.2c-0.3,0-0.5-0.2-0.5-0.5v-0.8c0-0.3,0.2-0.5,0.5-0.5h3.9c0.3,0,0.5,0.2,0.5,0.5v0.8
						C8.6,50.6,8.4,50.8,8.1,50.8z"/>
				</g>
				<g>
					<path class="st4" d="M8.1,44.8H4.2c-0.3,0-0.5-0.2-0.5-0.5v-0.8c0-0.3,0.2-0.5,0.5-0.5h3.9c0.3,0,0.5,0.2,0.5,0.5v0.8
						C8.6,44.6,8.4,44.8,8.1,44.8z"/>
				</g>
				<g>
					<path class="st4" d="M8.1,38.8H4.2c-0.3,0-0.5-0.2-0.5-0.5v-0.8c0-0.3,0.2-0.5,0.5-0.5h3.9c0.3,0,0.5,0.2,0.5,0.5v0.8
						C8.6,38.6,8.4,38.8,8.1,38.8z"/>
				</g>
				<g>
					<path class="st4" d="M8.1,32.8H4.2c-0.3,0-0.5-0.2-0.5-0.5v-0.8c0-0.3,0.2-0.5,0.5-0.5h3.9c0.3,0,0.5,0.2,0.5,0.5v0.8
						C8.6,32.6,8.4,32.8,8.1,32.8z"/>
				</g>
				<g>
					<path class="st4" d="M8.1,26.8H4.2c-0.3,0-0.5-0.2-0.5-0.5v-0.8c0-0.3,0.2-0.5,0.5-0.5h3.9c0.3,0,0.5,0.2,0.5,0.5v0.8
						C8.6,26.6,8.4,26.8,8.1,26.8z"/>
				</g>
				<g>
					<path class="st4" d="M8.1,20.8H4.2c-0.3,0-0.5-0.2-0.5-0.5v-0.8c0-0.3,0.2-0.5,0.5-0.5h3.9c0.3,0,0.5,0.2,0.5,0.5v0.8
						C8.6,20.6,8.4,20.8,8.1,20.8z"/>
				</g>
				<g>
					<path class="st4" d="M8.1,14.8H4.2c-0.3,0-0.5-0.2-0.5-0.5v-0.8c0-0.3,0.2-0.5,0.5-0.5h3.9c0.3,0,0.5,0.2,0.5,0.5v0.8
						C8.6,14.6,8.4,14.8,8.1,14.8z"/>
				</g>
			</g>
		</g>
	</g>
</g>
<g>
	
		<image style="overflow:visible;" width="303" height="303" xlink:href="61400897A64EB9B6.png"  transform="matrix(0.24 0 0 0.24 -4.6882 -4.3524)">
	</image>
	<g>
		<path class="st5" d="M50.1,8.6c2.6,0,4.7,2.1,4.7,4.7v37.2c0,2.6-2.1,4.7-4.7,4.7H13c-2.6,0-4.7-2.1-4.7-4.7V13.3
			c0-2.6,2.1-4.7,4.7-4.7H50.1 M50.1,7.6H13c-3.1,0-5.7,2.6-5.7,5.7v37.2c0,3.1,2.6,5.7,5.7,5.7h37.2c3.1,0,5.7-2.6,5.7-5.7V13.3
			C55.8,10.2,53.2,7.6,50.1,7.6L50.1,7.6z"/>
		<path class="st5" d="M50.1,10.6c1.5,0,2.7,1.2,2.7,2.7v37.2c0,1.5-1.2,2.7-2.7,2.7H13c-1.5,0-2.7-1.2-2.7-2.7V13.3
			c0-1.5,1.2-2.7,2.7-2.7H50.1 M50.1,7.6H13c-3.1,0-5.7,2.6-5.7,5.7v37.2c0,3.1,2.6,5.7,5.7,5.7h37.2c3.1,0,5.7-2.6,5.7-5.7V13.3
			C55.8,10.2,53.2,7.6,50.1,7.6L50.1,7.6z"/>
	</g>
</g>
<g>
	
		<image style="overflow:visible;" width="231" height="263" xlink:href="61400897A64EB9B1.png"  transform="matrix(0.24 0 0 0.24 4.7015 0.3988)">
	</image>
	<g>
		<g>
			<path class="st6" d="M30.2,23.2c-0.3-0.8-0.6-1.5-0.9-1.9c-0.3-0.5-0.6-0.9-1-1.1c-0.3-0.3-0.7-0.5-1.1-0.5
				c-0.4-0.1-0.8-0.1-1.3-0.1c-0.5,0-1,0-1.7,0.1c-0.7,0.1-1.2,0.2-1.7,0.3V15c0.7-0.2,1.4-0.3,2.2-0.4c0.8-0.1,1.4-0.2,2-0.2
				c1.1,0,2.2,0.1,3.1,0.3c0.9,0.2,1.7,0.6,2.5,1.2c0.7,0.6,1.4,1.4,2.1,2.5c0.6,1.1,1.2,2.4,1.8,4.1l6.6,19.4c0.3,1,0.7,1.6,1,2
				c0.3,0.4,0.7,0.5,1.2,0.5c0.1,0,0.3,0,0.5,0c0.2,0,0.4,0,0.5-0.1v4.6c-0.7,0.2-1.2,0.3-1.7,0.4c-0.5,0.1-0.9,0.1-1.4,0.1
				c-0.8,0-1.4-0.1-1.9-0.3c-0.5-0.2-1-0.5-1.4-0.9c-0.4-0.4-0.8-0.9-1.1-1.6s-0.7-1.5-1-2.5l-3.2-9.4L33,31.1l-1.3,3.6L26.2,49
				h-6.4l10.6-25.3L30.2,23.2z"/>
		</g>
	</g>
</g>
</svg>
